<svg width="28" height="28" viewBox="0 0 28 28" fill="none" xmlns="http://www.w3.org/2000/svg">
<path d="M13.2684 20.5379C13.2688 20.7605 13.2251 20.9809 13.1398 21.1864C13.0546 21.392 12.9296 21.5786 12.7718 21.7356L10.8064 23.7044C10.6506 23.8687 10.4634 24.0001 10.256 24.0909C10.0486 24.1817 9.82503 24.23 9.59861 24.233C9.37219 24.236 9.14746 24.1936 8.93769 24.1084C8.72792 24.0231 8.53737 23.8966 8.37727 23.7365C8.21717 23.5764 8.09077 23.3858 8.00554 23.176C7.92031 22.9662 7.87796 22.7415 7.88101 22.515C7.88406 22.2886 7.93244 22.0651 8.02329 21.8577C8.11414 21.6503 8.24562 21.4632 8.40997 21.3074L10.3754 19.3419C10.6826 19.0349 11.096 18.8575 11.5302 18.8463C11.9644 18.8351 12.3863 18.991 12.709 19.2818C12.7303 19.3015 12.7511 19.3211 12.7718 19.3419C12.7926 19.3627 12.8129 19.3835 12.832 19.4054C13.1129 19.7157 13.2685 20.1194 13.2684 20.5379Z" stroke="#454545" stroke-width="1.36719" stroke-linecap="round" stroke-linejoin="round"/>
<path d="M15.1695 24.1326L14.3328 24.9682C14.0113 25.2665 13.5866 25.4287 13.148 25.4205C12.7094 25.4123 12.2911 25.2344 11.9809 24.9242C11.6707 24.614 11.4929 24.1957 11.4847 23.7571C11.4765 23.3186 11.6386 22.8939 11.937 22.5723L12.7726 21.7356C13.0793 21.4293 13.4916 21.2521 13.9249 21.2404C14.3582 21.2287 14.7795 21.3834 15.1023 21.6727C15.1252 21.6929 15.1471 21.7137 15.1695 21.7356C15.192 21.7575 15.2122 21.7799 15.2324 21.8029C15.5218 22.1256 15.6765 22.5469 15.6648 22.9802C15.6531 23.4135 15.4759 23.8259 15.1695 24.1326Z" stroke="#454545" stroke-width="1.36719" stroke-linecap="round" stroke-linejoin="round"/>
<path d="M12.0014 17.0116C12.0019 17.2344 11.9584 17.455 11.8732 17.6608C11.7881 17.8667 11.6631 18.0536 11.5054 18.2109L8.4101 21.3062C8.08835 21.6044 7.66355 21.7662 7.22498 21.7577C6.7864 21.7492 6.36819 21.5711 6.05823 21.2607C5.74826 20.9503 5.57067 20.5318 5.56277 20.0932C5.55488 19.6547 5.71729 19.2301 6.01588 18.9087L9.11174 15.8134C9.419 15.5066 9.83227 15.3294 10.2663 15.3183C10.7004 15.3072 11.1222 15.4631 11.4447 15.7538C11.466 15.773 11.4868 15.7926 11.5081 15.8134C11.5295 15.8342 11.5486 15.8555 11.5678 15.8769C11.8482 16.1882 12.0027 16.5927 12.0014 17.0116Z" stroke="#454545" stroke-width="1.36719" stroke-linecap="round" stroke-linejoin="round"/>
<path d="M8.47574 15.7451C8.47597 15.9676 8.43228 16.188 8.34716 16.3936C8.26204 16.5992 8.13718 16.786 7.97972 16.9433L6.01097 18.9088C5.85724 19.0804 5.67012 19.2189 5.46106 19.3159C5.25199 19.4128 5.02536 19.4661 4.79501 19.4724C4.56465 19.4788 4.33542 19.4382 4.1213 19.353C3.90719 19.2678 3.71269 19.1398 3.54969 18.977C3.38669 18.8141 3.25861 18.6197 3.17327 18.4056C3.08793 18.1915 3.04713 17.9623 3.05335 17.732C3.05958 17.5016 3.1127 17.275 3.20947 17.0658C3.30625 16.8567 3.44464 16.6695 3.6162 16.5156L5.58167 14.5469C5.88835 14.2406 6.3007 14.0633 6.734 14.0516C7.16729 14.0399 7.58861 14.1947 7.91136 14.484C7.93433 14.5042 7.95621 14.525 7.97863 14.5469C8.00105 14.5688 8.02128 14.5912 8.04152 14.6141C8.3211 14.9245 8.47579 15.3274 8.47574 15.7451Z" stroke="#454545" stroke-width="1.36719" stroke-linecap="round" stroke-linejoin="round"/>
<path d="M17.0631 18.8409L19.6761 21.4539C19.8447 21.6085 19.9804 21.7956 20.0748 22.004C20.1692 22.2124 20.2205 22.4377 20.2255 22.6664C20.2305 22.8951 20.1892 23.1225 20.104 23.3348C20.0189 23.5472 19.8916 23.7401 19.7299 23.9019C19.5682 24.0637 19.3754 24.1912 19.1632 24.2765C18.9509 24.3619 18.7236 24.4034 18.4949 24.3986C18.2662 24.3938 18.0408 24.3427 17.8323 24.2485C17.6238 24.1543 17.4366 24.0188 17.2819 23.8503L15.2344 21.8028" stroke="#454545" stroke-width="1.36719" stroke-linecap="round" stroke-linejoin="round"/>
<path d="M17.0625 18.841L19.6755 21.454C19.9967 21.754 20.422 21.9176 20.8615 21.9101C21.301 21.9026 21.7205 21.7247 22.0313 21.4139C22.3422 21.1031 22.5202 20.6837 22.5278 20.2442C22.5353 19.8047 22.3719 19.3794 22.0719 19.0581L19.4584 16.4446" stroke="#454545" stroke-width="1.36719" stroke-linecap="round" stroke-linejoin="round"/>
<path d="M16.3867 8.53674L24.4684 16.6611C24.6338 16.8166 24.7663 17.0037 24.858 17.2114C24.9498 17.419 24.9989 17.643 25.0024 17.87C25.0059 18.0969 24.9638 18.3223 24.8786 18.5327C24.7934 18.7431 24.6668 18.9343 24.5063 19.0948C24.3458 19.2554 24.1547 19.3821 23.9444 19.4674C23.734 19.5527 23.5086 19.5949 23.2817 19.5915C23.0547 19.588 22.8307 19.5391 22.623 19.4474C22.4153 19.3558 22.2281 19.2234 22.0726 19.0581L19.4591 16.4446" stroke="#454545" stroke-width="1.36719" stroke-linecap="round" stroke-linejoin="round"/>
<path d="M4.41352 15.7151L2.80461 14.1061C1.54503 12.8326 0.840773 11.1123 0.845729 9.3211C0.850685 7.52991 1.56446 5.81351 2.83106 4.54697C4.09767 3.28044 5.81411 2.56677 7.6053 2.56191C9.3965 2.55706 11.1168 3.26142 12.3902 4.52107L13.9948 6.1338" stroke="#454545" stroke-width="1.36719" stroke-linecap="round" stroke-linejoin="round"/>
<path d="M23.5566 15.7445L25.1945 14.1039C26.4393 12.8275 27.131 11.112 27.1198 9.32909C27.1085 7.54621 26.3951 5.83957 25.1343 4.579C23.8734 3.31842 22.1666 2.60546 20.3837 2.59461C18.6008 2.58375 16.8855 3.27588 15.6094 4.521L13.9961 6.13374" stroke="#454545" stroke-width="1.36719" stroke-linecap="round" stroke-linejoin="round"/>
<path d="M16.387 8.53676L13.5728 11.351C13.3831 11.5407 13.1579 11.6912 12.91 11.7939C12.6622 11.8966 12.3965 11.9495 12.1282 11.9495C11.8599 11.9495 11.5943 11.8966 11.3464 11.7939C11.0985 11.6912 10.8733 11.5407 10.6837 11.351C10.5586 11.226 10.4593 11.0777 10.3916 10.9143C10.3239 10.751 10.2891 10.5759 10.2891 10.3991C10.2891 10.2223 10.3239 10.0473 10.3916 9.88395C10.4593 9.72062 10.5586 9.57225 10.6837 9.4473L13.9966 6.13379" stroke="#454545" stroke-width="1.36719" stroke-linecap="round" stroke-linejoin="round"/>
</svg>
