<svg width="182" height="62" viewBox="0 0 182 62" fill="none" xmlns="http://www.w3.org/2000/svg">
<g filter="url(#filter0_d_232_1303)">
<rect x="4" y="5" width="164" height="44" rx="8" fill="white" shape-rendering="crispEdges"/>
<rect x="4.5" y="5.5" width="163" height="43" rx="7.5" stroke="#ECECEC" shape-rendering="crispEdges"/>
<path d="M27.9707 20.577L28.573 22.2495C29.242 24.1057 30.7037 25.5675 32.56 26.2365L34.2325 26.8387C34.3832 26.8935 34.3832 27.1072 34.2325 27.1612L32.56 27.7635C30.7037 28.4325 29.242 29.8942 28.573 31.7505L27.9707 33.423C27.916 33.5737 27.7023 33.5737 27.6483 33.423L27.046 31.7505C26.377 29.8942 24.9152 28.4325 23.059 27.7635L21.3865 27.1612C21.2358 27.1065 21.2358 26.8927 21.3865 26.8387L23.059 26.2365C24.9152 25.5675 26.377 24.1057 27.046 22.2495L27.6483 20.577C27.7023 20.4255 27.916 20.4255 27.9707 20.577Z" fill="#CF1CD5"/>
<path d="M35.4993 16.5578L35.8045 17.4045C36.1435 18.3443 36.8838 19.0845 37.8235 19.4235L38.6703 19.7288C38.7468 19.7565 38.7468 19.8645 38.6703 19.8923L37.8235 20.1975C36.8838 20.5365 36.1435 21.2768 35.8045 22.2165L35.4993 23.0633C35.4715 23.1398 35.3635 23.1398 35.3358 23.0633L35.0305 22.2165C34.6915 21.2768 33.9513 20.5365 33.0115 20.1975L32.1648 19.8923C32.0883 19.8645 32.0883 19.7565 32.1648 19.7288L33.0115 19.4235C33.9513 19.0845 34.6915 18.3443 35.0305 17.4045L35.3358 16.5578C35.3635 16.4805 35.4723 16.4805 35.4993 16.5578Z" fill="#CF1CD5"/>
<path d="M35.4993 30.9375L35.8045 31.7843C36.1435 32.724 36.8838 33.4643 37.8235 33.8033L38.6703 34.1085C38.7468 34.1363 38.7468 34.2443 38.6703 34.272L37.8235 34.5773C36.8838 34.9163 36.1435 35.6565 35.8045 36.5963L35.4993 37.443C35.4715 37.5195 35.3635 37.5195 35.3358 37.443L35.0305 36.5963C34.6915 35.6565 33.9513 34.9163 33.0115 34.5773L32.1648 34.272C32.0883 34.2443 32.0883 34.1363 32.1648 34.1085L33.0115 33.8033C33.9513 33.4643 34.6915 32.724 35.0305 31.7843L35.3358 30.9375C35.3635 30.861 35.4723 30.861 35.4993 30.9375Z" fill="#CF1CD5"/>
<path d="M51.952 33.336C51.7813 33.336 51.6427 33.2773 51.536 33.16C51.4293 33.0427 51.376 32.8347 51.376 32.536C51.376 32.312 51.4453 31.9493 51.584 31.448C51.7333 30.936 51.9307 30.3387 52.176 29.656C52.432 28.9733 52.7147 28.2533 53.024 27.496C53.344 26.728 53.6747 25.9653 54.016 25.208C54.3573 24.4507 54.6933 23.752 55.024 23.112C55.3547 22.4613 55.6587 21.912 55.936 21.464C56.2133 21.016 56.448 20.7227 56.64 20.584C56.864 20.424 57.072 20.344 57.264 20.344C57.3707 20.344 57.4773 20.3547 57.584 20.376C57.6907 20.3973 57.7813 20.4347 57.856 20.488C58.048 20.6053 58.2133 20.8667 58.352 21.272C58.5013 21.6667 58.6293 22.152 58.736 22.728C58.8427 23.2933 58.928 23.9013 58.992 24.552C59.0667 25.192 59.1307 25.8267 59.184 26.456C59.504 26.4133 59.7707 26.3813 59.984 26.36C60.1973 26.3387 60.352 26.328 60.448 26.328C60.8107 26.328 61.04 26.376 61.136 26.472C61.232 26.568 61.2853 26.68 61.296 26.808C61.3173 27 61.264 27.1707 61.136 27.32C61.008 27.4693 60.8267 27.5813 60.592 27.656C60.5173 27.6773 60.3573 27.7147 60.112 27.768C59.8773 27.8107 59.5947 27.864 59.264 27.928C59.2747 28.248 59.28 28.5467 59.28 28.824C59.2907 29.0907 59.296 29.32 59.296 29.512C59.296 30.4827 59.2373 31.2133 59.12 31.704C59.0027 32.184 58.8587 32.5093 58.688 32.68C58.5173 32.8507 58.352 32.936 58.192 32.936C58 32.936 57.8667 32.8827 57.792 32.776C57.7173 32.6587 57.68 32.4933 57.68 32.28V31.144C57.68 30.7493 57.6747 30.3013 57.664 29.8C57.664 29.288 57.6587 28.7493 57.648 28.184C57.0187 28.2907 56.3787 28.392 55.728 28.488C55.088 28.584 54.5333 28.6693 54.064 28.744C53.8293 29.352 53.6267 29.9013 53.456 30.392C53.2853 30.872 53.168 31.24 53.104 31.496C52.944 32.0293 52.8 32.4293 52.672 32.696C52.544 32.952 52.4213 33.1227 52.304 33.208C52.1973 33.2933 52.08 33.336 51.952 33.336ZM54.608 27.32C55.1627 27.192 55.6907 27.0747 56.192 26.968C56.704 26.8613 57.1733 26.7707 57.6 26.696C57.568 25.736 57.5093 24.8187 57.424 23.944C57.3493 23.0587 57.2373 22.36 57.088 21.848C56.8853 22.2 56.6453 22.6693 56.368 23.256C56.0907 23.8427 55.7973 24.4933 55.488 25.208C55.1893 25.912 54.896 26.616 54.608 27.32ZM66.5919 23.784C66.1332 23.784 65.8239 23.72 65.6639 23.592C65.5145 23.464 65.4399 23.3413 65.4399 23.224C65.4399 23.0533 65.5252 22.8987 65.6959 22.76C65.8772 22.6213 66.0959 22.5253 66.3519 22.472C66.6612 22.408 67.0345 22.344 67.4719 22.28C67.9199 22.2053 68.3839 22.1413 68.8639 22.088C69.3439 22.024 69.8132 21.976 70.2719 21.944C70.7305 21.912 71.1305 21.896 71.4719 21.896C71.9199 21.896 72.2612 21.9813 72.4959 22.152C72.7412 22.312 72.8639 22.4613 72.8639 22.6C72.8639 22.6107 72.8639 22.632 72.8639 22.664C72.8639 22.7493 72.8479 22.824 72.8159 22.888C72.7839 22.952 72.6772 23.016 72.4959 23.08C72.3252 23.1333 72.0319 23.192 71.6159 23.256C71.2105 23.3093 70.6345 23.368 69.8879 23.432C69.7385 23.4427 69.5732 23.4587 69.3919 23.48C69.3492 23.768 69.2852 24.1467 69.1999 24.616C69.1145 25.0853 69.0185 25.608 68.9119 26.184C68.8052 26.76 68.6932 27.352 68.5759 27.96C68.4585 28.5573 68.3412 29.128 68.2239 29.672C68.1172 30.216 68.0212 30.696 67.9359 31.112C67.8612 31.528 67.8025 31.8427 67.7599 32.056C68.3145 31.9813 68.8052 31.9333 69.2319 31.912C69.6692 31.88 69.9625 31.864 70.1119 31.864C70.5065 31.864 70.7039 32.0133 70.7039 32.312C70.7039 32.3973 70.5225 32.52 70.1599 32.68C69.7972 32.84 69.3332 33.0053 68.7679 33.176C68.2025 33.3467 67.6159 33.5067 67.0079 33.656C66.5065 33.7733 66.0105 33.864 65.5199 33.928C65.0399 33.992 64.6932 34.024 64.4799 34.024C64.2452 34.024 64.0799 33.9813 63.9839 33.896C63.8879 33.8213 63.8399 33.7093 63.8399 33.56C63.8399 33.4107 63.8825 33.2613 63.9679 33.112C64.0639 32.9627 64.1919 32.856 64.3519 32.792C64.6399 32.6853 64.9599 32.5893 65.3119 32.504C65.6639 32.408 66.0212 32.3227 66.3839 32.248C66.3839 32.1947 66.3839 32.1307 66.3839 32.056C66.3839 31.9067 66.4105 31.624 66.4639 31.208C66.5279 30.792 66.6079 30.296 66.7039 29.72C66.7999 29.1333 66.9065 28.5253 67.0239 27.896C67.1412 27.256 67.2532 26.648 67.3599 26.072C67.4665 25.4853 67.5625 24.9787 67.6479 24.552C67.7332 24.1147 67.7972 23.8213 67.8399 23.672C67.5732 23.704 67.3332 23.7307 67.1199 23.752C66.9065 23.7733 66.7305 23.784 66.5919 23.784ZM75.6391 27.4C75.3511 27.4 75.0951 27.336 74.8711 27.208C74.6578 27.0693 74.5511 26.92 74.5511 26.76C74.5511 26.664 74.7165 26.5573 75.0471 26.44C75.3885 26.312 75.8311 26.1893 76.3751 26.072C76.9191 25.9547 77.5111 25.8587 78.1511 25.784C78.8018 25.7093 79.4365 25.672 80.0551 25.672C80.5885 25.672 80.9565 25.7413 81.1591 25.88C81.3618 26.008 81.4631 26.152 81.4631 26.312C81.4631 26.44 81.2765 26.5733 80.9031 26.712C80.5405 26.84 80.0658 26.9573 79.4791 27.064C78.9031 27.16 78.2738 27.24 77.5911 27.304C76.9191 27.368 76.2685 27.4 75.6391 27.4ZM89.8096 27.912C89.191 27.912 88.567 27.832 87.9376 27.672C87.3083 27.5013 86.7376 27.288 86.2256 27.032C86.055 27.64 85.895 28.3067 85.7456 29.032C85.5963 29.7573 85.4576 30.536 85.3296 31.368C85.2123 31.9653 85.095 32.3547 84.9776 32.536C84.8603 32.7173 84.711 32.808 84.5296 32.808C84.3483 32.808 84.2043 32.7227 84.0976 32.552C83.991 32.3707 83.9376 32.0347 83.9376 31.544C83.9376 31.448 83.9643 31.224 84.0176 30.872C84.071 30.52 84.1403 30.088 84.2256 29.576C84.3216 29.0533 84.423 28.4933 84.5296 27.896C84.6363 27.288 84.743 26.68 84.8496 26.072C84.5936 25.7947 84.4656 25.5333 84.4656 25.288C84.4656 25.1707 84.4976 25.0587 84.5616 24.952C84.6256 24.8347 84.759 24.776 84.9616 24.776C84.9936 24.776 85.031 24.7813 85.0736 24.792C85.191 24.152 85.287 23.5813 85.3616 23.08C85.447 22.568 85.495 22.2 85.5056 21.976C85.527 21.592 85.6016 21.3253 85.7296 21.176C85.8576 21.016 86.007 20.936 86.1776 20.936C86.3163 20.936 86.4283 20.9947 86.5136 21.112C86.599 21.2187 86.6416 21.4907 86.6416 21.928C86.6416 22.2053 86.6203 22.5787 86.5776 23.048C87.1003 21.9813 87.6443 21.224 88.2096 20.776C88.7856 20.328 89.4256 20.104 90.1296 20.104C90.7696 20.104 91.319 20.28 91.7776 20.632C92.2363 20.9733 92.5883 21.4587 92.8336 22.088C93.079 22.7173 93.2016 23.4587 93.2016 24.312C93.2016 25.5173 92.9083 26.4187 92.3216 27.016C91.735 27.6133 90.8976 27.912 89.8096 27.912ZM86.6416 25.704C87.047 25.9387 87.5003 26.1573 88.0016 26.36C88.503 26.552 89.0203 26.648 89.5536 26.648C90.4176 26.648 91.047 26.456 91.4416 26.072C91.847 25.6773 92.0496 25.0427 92.0496 24.168C92.0496 23.1547 91.8896 22.4347 91.5696 22.008C91.2496 21.5813 90.8123 21.368 90.2576 21.368C89.6283 21.368 88.999 21.72 88.3696 22.424C87.7403 23.1173 87.1643 24.2107 86.6416 25.704ZM97.4035 33.16C96.7742 33.16 96.2782 32.92 95.9155 32.44C95.5528 31.96 95.3715 31.336 95.3715 30.568C95.3715 30.2907 95.4088 29.9973 95.4835 29.688C95.5688 29.368 95.6755 29.08 95.8035 28.824C95.7288 28.7493 95.6702 28.648 95.6275 28.52C95.5848 28.3813 95.5635 28.2107 95.5635 28.008C95.5635 27.3787 95.6702 26.8027 95.8835 26.28C96.0968 25.7573 96.3795 25.304 96.7315 24.92C97.0835 24.5253 97.4728 24.2213 97.8995 24.008C98.3368 23.7947 98.7795 23.688 99.2275 23.688C99.9635 23.688 100.561 23.9547 101.02 24.488C101.478 25.0107 101.708 25.8107 101.708 26.888C101.708 27.4533 101.622 28.0293 101.452 28.616C101.292 29.2027 101.068 29.768 100.78 30.312C100.502 30.856 100.177 31.3413 99.8035 31.768C99.4408 32.1947 99.0515 32.536 98.6355 32.792C98.2302 33.0373 97.8195 33.16 97.4035 33.16ZM96.8595 28.28C96.9235 28.3653 96.9555 28.4773 96.9555 28.616C96.9555 28.776 96.9235 28.936 96.8595 29.096C96.8062 29.256 96.7475 29.4747 96.6835 29.752C96.6195 30.0293 96.5875 30.424 96.5875 30.936C96.5875 31.448 96.7902 31.704 97.1955 31.704C97.6435 31.704 98.0595 31.528 98.4435 31.176C98.8275 30.8133 99.1688 30.3493 99.4675 29.784C99.7662 29.2187 99.9955 28.616 100.156 27.976C100.326 27.3253 100.412 26.712 100.412 26.136C100.412 25.7627 100.342 25.5013 100.204 25.352C100.065 25.192 99.8142 25.112 99.4515 25.112C99.0782 25.112 98.6888 25.24 98.2835 25.496C97.8888 25.7413 97.5582 26.0773 97.2915 26.504C97.0248 26.9307 96.8915 27.4107 96.8915 27.944C96.8915 28.0613 96.8808 28.1733 96.8595 28.28ZM105.459 33.464C105.085 33.464 104.776 33.2987 104.531 32.968C104.296 32.6267 104.179 32.024 104.179 31.16C104.179 30.2533 104.195 29.3733 104.227 28.52C104.259 27.656 104.317 26.8827 104.403 26.2C104.499 25.5173 104.627 24.9733 104.787 24.568C104.947 24.1627 105.155 23.96 105.411 23.96C105.592 23.96 105.752 24.0613 105.891 24.264C106.029 24.456 106.099 24.712 106.099 25.032C106.099 25.3627 106.067 25.8053 106.003 26.36C105.939 26.9147 105.859 27.512 105.763 28.152C105.677 28.7813 105.603 29.3947 105.539 29.992C105.475 30.5787 105.443 31.0747 105.443 31.48C105.443 31.6507 105.448 31.7893 105.459 31.896C105.48 31.992 105.512 32.04 105.555 32.04C105.715 32.04 105.885 31.9013 106.067 31.624C106.259 31.336 106.461 30.9627 106.674 30.504C106.888 30.0347 107.112 29.5227 107.347 28.968C107.581 28.4027 107.821 27.8427 108.067 27.288C108.312 26.7333 108.563 26.2267 108.819 25.768C109.075 25.2987 109.331 24.9253 109.587 24.648C109.843 24.36 110.093 24.216 110.339 24.216C110.627 24.216 110.893 24.3547 111.139 24.632C111.395 24.8987 111.523 25.2827 111.523 25.784C111.523 25.9333 111.501 26.1947 111.459 26.568C111.416 26.9307 111.363 27.3467 111.299 27.816C111.235 28.2853 111.171 28.7547 111.107 29.224C111.043 29.6827 110.989 30.0933 110.947 30.456C110.904 30.808 110.883 31.0587 110.883 31.208C110.883 31.7627 110.936 32.04 111.043 32.04C111.341 32.04 111.656 31.8533 111.987 31.48C112.328 31.096 112.669 30.6053 113.011 30.008C113.363 29.4 113.709 28.744 114.051 28.04C114.403 27.3253 114.739 26.6427 115.059 25.992C115.208 25.6507 115.331 25.4213 115.427 25.304C115.533 25.176 115.64 25.112 115.747 25.112C115.896 25.112 116.035 25.192 116.163 25.352C116.301 25.512 116.371 25.7307 116.371 26.008C116.371 26.104 116.365 26.2 116.355 26.296C116.344 26.3813 116.317 26.4773 116.275 26.584C115.912 27.544 115.523 28.4347 115.107 29.256C114.691 30.0667 114.264 30.776 113.827 31.384C113.4 31.9813 112.979 32.4507 112.562 32.792C112.147 33.1227 111.763 33.288 111.411 33.288C110.803 33.288 110.328 33.1173 109.987 32.776C109.656 32.424 109.491 31.9547 109.491 31.368C109.491 31.1227 109.507 30.8027 109.539 30.408C109.581 30.0133 109.629 29.5867 109.683 29.128C109.747 28.6693 109.811 28.2267 109.875 27.8C109.939 27.3733 109.992 27 110.035 26.68C110.088 26.36 110.12 26.1413 110.131 26.024C110.141 25.8747 110.125 25.8 110.083 25.8C110.04 25.8 109.955 25.9387 109.827 26.216C109.709 26.4827 109.565 26.824 109.395 27.24C109.235 27.6453 109.064 28.0667 108.883 28.504C108.68 28.984 108.445 29.512 108.179 30.088C107.923 30.6533 107.645 31.192 107.347 31.704C107.059 32.216 106.755 32.6373 106.435 32.968C106.115 33.2987 105.789 33.464 105.459 33.464ZM124.325 25.848C124.325 26.5307 124 27.192 123.349 27.832C122.699 28.472 121.707 29.0587 120.373 29.592C120.331 29.8587 120.309 30.0827 120.309 30.264C120.309 30.6907 120.363 31 120.469 31.192C120.587 31.384 120.779 31.48 121.045 31.48C121.44 31.48 121.883 31.3573 122.373 31.112C122.864 30.856 123.371 30.5307 123.893 30.136C124.416 29.7307 124.928 29.304 125.429 28.856C125.941 28.408 126.411 27.9867 126.837 27.592C127.264 27.1867 127.627 26.8613 127.925 26.616C128.224 26.36 128.427 26.232 128.533 26.232C128.683 26.232 128.805 26.3013 128.901 26.44C128.997 26.568 129.045 26.744 129.045 26.968C129.045 27.2453 129.029 27.5653 128.997 27.928C128.965 28.28 128.928 28.6533 128.885 29.048C129.163 28.2693 129.509 27.592 129.925 27.016C130.352 26.4293 130.805 25.944 131.285 25.56C131.765 25.176 132.235 24.888 132.693 24.696C133.152 24.504 133.547 24.408 133.877 24.408C134.187 24.408 134.416 24.4667 134.565 24.584C134.715 24.7013 134.789 24.84 134.789 25C134.789 25.1493 134.72 25.288 134.581 25.416C134.453 25.5333 134.155 25.688 133.685 25.88C133.141 26.0933 132.629 26.344 132.149 26.632C131.68 26.92 131.243 27.3147 130.837 27.816C130.432 28.3067 130.069 28.9627 129.749 29.784C129.429 30.6053 129.157 31.6613 128.933 32.952C128.891 33.208 128.816 33.3893 128.709 33.496C128.603 33.6133 128.475 33.672 128.325 33.672C128.219 33.672 128.112 33.624 128.005 33.528C127.899 33.4427 127.813 33.2347 127.749 32.904C127.685 32.5627 127.653 32.0293 127.653 31.304C127.653 30.8133 127.675 30.28 127.717 29.704C127.771 29.128 127.845 28.5253 127.941 27.896C127.451 28.4293 126.907 28.9893 126.309 29.576C125.712 30.152 125.093 30.6907 124.453 31.192C123.813 31.6827 123.184 32.0827 122.565 32.392C121.947 32.7013 121.371 32.856 120.837 32.856C120.272 32.856 119.819 32.6587 119.477 32.264C119.136 31.8693 118.965 31.2827 118.965 30.504C118.965 29.608 119.083 28.7867 119.317 28.04C119.552 27.2933 119.856 26.648 120.229 26.104C120.603 25.5493 121.003 25.1227 121.429 24.824C121.856 24.5253 122.267 24.376 122.661 24.376C123.195 24.376 123.605 24.5147 123.893 24.792C124.181 25.0587 124.325 25.4107 124.325 25.848ZM120.629 28.424C120.949 28.2 121.296 27.9493 121.669 27.672C122.053 27.3947 122.379 27.112 122.645 26.824C122.923 26.5253 123.061 26.2533 123.061 26.008C123.061 25.8587 123.024 25.752 122.949 25.688C122.875 25.624 122.747 25.592 122.565 25.592C122.277 25.592 122.011 25.736 121.765 26.024C121.52 26.3013 121.301 26.6587 121.109 27.096C120.917 27.5227 120.757 27.9653 120.629 28.424ZM141.296 26.104C141.296 26.4453 141.189 26.7813 140.976 27.112C140.762 27.432 140.48 27.7413 140.128 28.04C139.776 28.328 139.386 28.6 138.96 28.856C138.533 29.112 138.106 29.336 137.68 29.528C137.253 29.72 136.864 29.8747 136.512 29.992C136.426 30.408 136.384 30.776 136.384 31.096C136.384 31.2987 136.432 31.4427 136.528 31.528C136.624 31.6133 136.773 31.656 136.976 31.656C137.424 31.656 137.898 31.576 138.4 31.416C138.901 31.256 139.413 31.048 139.936 30.792C140.458 30.536 140.96 30.264 141.44 29.976C141.92 29.688 142.357 29.416 142.752 29.16C143.157 28.904 143.493 28.696 143.76 28.536C144.026 28.376 144.202 28.296 144.288 28.296C144.416 28.296 144.512 28.3387 144.576 28.424C144.65 28.4987 144.688 28.5893 144.688 28.696C144.688 28.7813 144.554 28.9467 144.288 29.192C144.032 29.4373 143.685 29.7253 143.248 30.056C142.81 30.376 142.32 30.7067 141.776 31.048C141.232 31.3893 140.666 31.7093 140.08 32.008C139.504 32.3067 138.944 32.5467 138.4 32.728C137.866 32.9093 137.386 33 136.96 33C136.405 33 135.973 32.792 135.664 32.376C135.354 31.96 135.2 31.3147 135.2 30.44C135.2 29.8533 135.274 29.2613 135.424 28.664C135.584 28.0667 135.797 27.496 136.064 26.952C136.341 26.3973 136.645 25.9067 136.976 25.48C137.317 25.0427 137.674 24.7013 138.048 24.456C138.421 24.2 138.784 24.072 139.136 24.072C139.808 24.072 140.336 24.2587 140.72 24.632C141.104 25.0053 141.296 25.496 141.296 26.104ZM136.848 28.76C137.178 28.5573 137.52 28.344 137.872 28.12C138.224 27.896 138.549 27.6667 138.848 27.432C139.146 27.1973 139.386 26.952 139.568 26.696C139.76 26.4293 139.856 26.1573 139.856 25.88C139.856 25.4853 139.642 25.288 139.216 25.288C138.949 25.288 138.666 25.4587 138.368 25.8C138.08 26.1307 137.802 26.5627 137.536 27.096C137.269 27.6293 137.04 28.184 136.848 28.76ZM150.081 24.952C150.369 24.2587 150.641 23.544 150.897 22.808C151.164 22.072 151.404 21.32 151.617 20.552C151.681 20.3387 151.777 20.168 151.905 20.04C152.044 19.9013 152.204 19.832 152.385 19.832C152.513 19.832 152.62 19.88 152.705 19.976C152.801 20.072 152.849 20.2 152.849 20.36C152.849 20.5627 152.769 20.9147 152.609 21.416C152.46 21.9173 152.268 22.552 152.033 23.32C151.809 24.088 151.58 24.9733 151.345 25.976C151.121 26.968 150.929 28.0667 150.769 29.272C150.62 30.4773 150.545 31.7627 150.545 33.128C150.545 33.4267 150.481 33.672 150.353 33.864C150.225 34.0667 150.071 34.168 149.889 34.168C149.783 34.168 149.681 34.1413 149.585 34.088C149.489 34.0347 149.404 33.9067 149.329 33.704C149.265 33.512 149.212 33.208 149.169 32.792C149.127 32.3653 149.105 31.7893 149.105 31.064C149.105 30.5093 149.137 29.9067 149.201 29.256C148.711 30.1413 148.177 30.9147 147.601 31.576C147.036 32.2267 146.487 32.728 145.953 33.08C145.431 33.432 144.983 33.608 144.609 33.608C144.151 33.608 143.777 33.4533 143.489 33.144C143.212 32.8453 143.073 32.3973 143.073 31.8C143.073 31.2773 143.196 30.7387 143.441 30.184C143.687 29.6293 144.012 29.0853 144.417 28.552C144.823 28.008 145.271 27.496 145.761 27.016C146.252 26.536 146.743 26.1147 147.233 25.752C147.735 25.3787 148.199 25.0907 148.625 24.888C149.052 24.6747 149.399 24.568 149.665 24.568C149.772 24.568 149.868 24.6053 149.953 24.68C150.039 24.7547 150.081 24.8453 150.081 24.952ZM149.873 25.448C149.799 25.5227 149.708 25.5973 149.601 25.672C149.495 25.7467 149.377 25.8267 149.249 25.912C148.78 26.2427 148.263 26.6267 147.697 27.064C147.143 27.4907 146.609 27.96 146.097 28.472C145.596 28.9733 145.185 29.5013 144.865 30.056C144.545 30.6107 144.385 31.1813 144.385 31.768C144.385 32.024 144.513 32.152 144.769 32.152C145.121 32.152 145.505 31.9867 145.921 31.656C146.348 31.3147 146.785 30.8453 147.233 30.248C147.681 29.64 148.129 28.9307 148.577 28.12C149.025 27.2987 149.457 26.408 149.873 25.448Z" fill="#6A6A6A"/>
</g>
<defs>
<filter id="filter0_d_232_1303" x="0.7" y="0.7" width="180.6" height="60.6" filterUnits="userSpaceOnUse" color-interpolation-filters="sRGB">
<feFlood flood-opacity="0" result="BackgroundImageFix"/>
<feColorMatrix in="SourceAlpha" type="matrix" values="0 0 0 0 0 0 0 0 0 0 0 0 0 0 0 0 0 0 127 0" result="hardAlpha"/>
<feOffset dx="5" dy="4"/>
<feGaussianBlur stdDeviation="4.15"/>
<feComposite in2="hardAlpha" operator="out"/>
<feColorMatrix type="matrix" values="0 0 0 0 0 0 0 0 0 0 0 0 0 0 0 0 0 0 0.06 0"/>
<feBlend mode="normal" in2="BackgroundImageFix" result="effect1_dropShadow_232_1303"/>
<feBlend mode="normal" in="SourceGraphic" in2="effect1_dropShadow_232_1303" result="shape"/>
</filter>
</defs>
</svg>
