<svg width="12" height="12" viewBox="0 0 12 12" fill="none" xmlns="http://www.w3.org/2000/svg">
<path d="M11.9687 4.60299C11.8902 4.36 11.6746 4.18742 11.4197 4.16444L7.95614 3.84995L6.58656 0.644328C6.48558 0.409397 6.25559 0.257324 6.00006 0.257324C5.74453 0.257324 5.51454 0.409397 5.41356 0.644877L4.04399 3.84995L0.579908 4.16444C0.325385 4.18797 0.110414 4.36 0.0314019 4.60299C-0.0476102 4.84597 0.0253592 5.11249 0.2179 5.28049L2.83592 7.57651L2.06392 10.9771C2.00744 11.2272 2.10448 11.4856 2.31195 11.6356C2.42346 11.7162 2.55393 11.7572 2.68549 11.7572C2.79893 11.7572 2.91145 11.7266 3.01244 11.6662L6.00006 9.88059L8.98659 11.6662C9.20513 11.7977 9.48062 11.7857 9.68762 11.6356C9.89518 11.4852 9.99214 11.2266 9.93565 10.9771L9.16366 7.57651L11.7817 5.28095C11.9742 5.11249 12.0477 4.84643 11.9687 4.60299Z" fill="#BCBCBC"/>
</svg>
