<svg width="40" height="40" viewBox="0 0 40 40" fill="none" xmlns="http://www.w3.org/2000/svg">
<g clip-path="url(#clip0_338_2638)">
<path d="M38.1078 1.13989H1.89453C1.47816 1.13989 1.14062 1.47743 1.14062 1.8938V38.1071C1.14062 38.5234 1.47816 38.861 1.89453 38.861H38.1078C38.5242 38.861 38.8617 38.5234 38.8617 38.1071V1.8938C38.8617 1.47743 38.5242 1.13989 38.1078 1.13989Z" stroke="#373737" stroke-width="1.95312" stroke-miterlimit="10"/>
<path d="M0.9375 5.84302H37.9133" stroke="#373737" stroke-width="1.95312" stroke-miterlimit="10"/>
<path d="M25.8594 1.13989V5.06724" stroke="#373737" stroke-width="1.95312" stroke-miterlimit="10"/>
<path d="M32.8906 1.13989V5.06724" stroke="#373737" stroke-width="1.95312" stroke-miterlimit="10"/>
<path d="M20 5.84302V38.1383" stroke="#373737" stroke-width="1.95312" stroke-miterlimit="10"/>
<path d="M5.87109 26.7593H15.2242" stroke="#373737" stroke-width="1.95312" stroke-miterlimit="10" stroke-linecap="round"/>
<path d="M5.87109 31.5867H15.2242" stroke="#373737" stroke-width="1.95312" stroke-miterlimit="10" stroke-linecap="round"/>
<path d="M24.7539 26.7593H34.1078" stroke="#373737" stroke-width="1.95312" stroke-miterlimit="10" stroke-linecap="round"/>
<path d="M24.7539 31.5867H34.1078" stroke="#373737" stroke-width="1.95312" stroke-miterlimit="10" stroke-linecap="round"/>
<path d="M12.7263 18.7302L12.3042 17.6207H8.71038L8.28829 18.7544C8.12347 19.1966 7.98278 19.496 7.8662 19.6528C7.74962 19.8056 7.55867 19.8819 7.29336 19.8819C7.06824 19.8819 6.86926 19.7995 6.6964 19.6347C6.52354 19.4699 6.43711 19.283 6.43711 19.0739C6.43711 18.9533 6.45721 18.8287 6.49741 18.7001C6.53761 18.5715 6.60394 18.3926 6.6964 18.1634L8.95761 12.423C9.02193 12.2582 9.09831 12.0612 9.18674 11.832C9.2792 11.5989 9.37568 11.4059 9.47618 11.2532C9.5807 11.1004 9.71536 10.9778 9.88018 10.8853C10.049 10.7889 10.256 10.7406 10.5013 10.7406C10.7505 10.7406 10.9575 10.7889 11.1223 10.8853C11.2912 10.9778 11.4258 11.0984 11.5263 11.2471C11.6309 11.3959 11.7173 11.5567 11.7856 11.7295C11.858 11.8984 11.9484 12.1255 12.057 12.4109L14.3664 18.1152C14.5473 18.5493 14.6378 18.8649 14.6378 19.0619C14.6378 19.2669 14.5513 19.4558 14.3785 19.6287C14.2096 19.7975 14.0046 19.8819 13.7634 19.8819C13.6227 19.8819 13.5021 19.8558 13.4016 19.8036C13.3011 19.7553 13.2167 19.689 13.1484 19.6046C13.08 19.5161 13.0057 19.3835 12.9253 19.2066C12.8489 19.0257 12.7826 18.8669 12.7263 18.7302ZM9.18071 16.2761H11.8218L10.4892 12.628L9.18071 16.2761Z" fill="#373737"/>
<path d="M29.7278 19.7312H27.0264C26.6365 19.7312 26.3571 19.6448 26.1882 19.4719C26.0234 19.295 25.941 19.0157 25.941 18.6338V11.9888C25.941 11.5989 26.0254 11.3195 26.1943 11.1507C26.3671 10.9778 26.6445 10.8914 27.0264 10.8914H29.8906C30.3127 10.8914 30.6785 10.9175 30.988 10.9698C31.2976 11.022 31.5749 11.1225 31.8201 11.2713C32.0292 11.3959 32.2141 11.5547 32.3749 11.7476C32.5357 11.9366 32.6583 12.1476 32.7427 12.3808C32.8271 12.6099 32.8694 12.8531 32.8694 13.1104C32.8694 13.9948 32.4272 14.642 31.5428 15.052C32.7045 15.4218 33.2854 16.1414 33.2854 17.2107C33.2854 17.7052 33.1588 18.1514 32.9055 18.5493C32.6523 18.9433 32.3106 19.2347 31.8804 19.4237C31.6111 19.5362 31.3016 19.6166 30.9518 19.6649C30.6021 19.7091 30.1941 19.7312 29.7278 19.7312ZM29.5951 15.8057H27.7319V18.3865H29.6554C30.8654 18.3865 31.4704 17.9504 31.4704 17.078C31.4704 16.6318 31.3136 16.3082 31.0001 16.1072C30.6865 15.9062 30.2182 15.8057 29.5951 15.8057ZM27.7319 12.236V14.5214H29.372C29.8182 14.5214 30.1619 14.4792 30.4031 14.3947C30.6483 14.3103 30.8353 14.1495 30.9639 13.9124C31.0644 13.7435 31.1147 13.5546 31.1147 13.3455C31.1147 12.8993 30.9559 12.6039 30.6383 12.4592C30.3207 12.3104 29.8363 12.236 29.1851 12.236H27.7319Z" fill="#373737"/>
</g>
<defs>
<clipPath id="clip0_338_2638">
<rect width="40" height="40" fill="white"/>
</clipPath>
</defs>
</svg>
