<svg width="205" height="64" viewBox="0 0 205 64" fill="none" xmlns="http://www.w3.org/2000/svg">
<g filter="url(#filter0_d_232_1316)">
<rect x="4" y="5" width="187" height="46" rx="8" fill="white" shape-rendering="crispEdges"/>
<rect x="4.5" y="5.5" width="186" height="45" rx="7.5" stroke="#ECECEC" shape-rendering="crispEdges"/>
<g clip-path="url(#clip0_232_1316)">
<path d="M31 15C23.8206 15 18 20.8206 18 28C18 35.1794 23.8206 41 31 41C38.1794 41 44 35.1794 44 28C44 20.8206 38.1794 15 31 15ZM34.7342 33.1251C34.1671 33.8152 33.4288 34.2807 32.5675 34.516C32.193 34.6177 32.0218 34.8156 32.0432 35.2062C32.0593 35.5914 32.0432 35.9712 32.0379 36.3564C32.0379 36.6988 31.8613 36.8807 31.5243 36.8914C31.3049 36.8967 31.0856 36.9021 30.8663 36.9021C30.6737 36.9021 30.4811 36.9021 30.2885 36.8967C29.9247 36.8914 29.7535 36.6827 29.7535 36.3296C29.7481 36.0514 29.7481 35.7679 29.7481 35.4897C29.7428 34.8691 29.7214 34.8477 29.1276 34.7514C28.3679 34.6284 27.6189 34.4572 26.9235 34.1202C26.3778 33.8527 26.3189 33.7189 26.4741 33.1412C26.5918 32.7132 26.7095 32.2852 26.8432 31.8626C26.9395 31.5523 27.0305 31.4132 27.1963 31.4132C27.2926 31.4132 27.4156 31.4613 27.5815 31.5469C28.3519 31.9481 29.1704 32.1728 30.0317 32.2798C30.1761 32.2959 30.3206 32.3066 30.465 32.3066C30.8663 32.3066 31.2568 32.2317 31.6366 32.0658C32.5942 31.6486 32.744 30.5412 31.9362 29.8778C31.6634 29.6531 31.3477 29.4872 31.0214 29.3428C30.1815 28.9737 29.3095 28.6955 28.5177 28.2193C27.2337 27.449 26.4206 26.3951 26.5169 24.8329C26.6239 23.0675 27.6243 21.9654 29.2453 21.377C29.914 21.1362 29.9193 21.1416 29.9193 20.4461C29.9193 20.2107 29.914 19.9753 29.9247 19.7346C29.9407 19.2103 30.0263 19.1193 30.5506 19.1033C30.6095 19.1033 30.6737 19.1033 30.7325 19.1033C30.8342 19.1033 30.9358 19.1033 31.0374 19.1033C31.0802 19.1033 31.123 19.1033 31.1605 19.1033C32.1556 19.1033 32.1556 19.1461 32.1609 20.2214C32.1663 21.0132 32.1663 21.0132 32.9527 21.1362C33.5572 21.2325 34.1296 21.4091 34.686 21.6551C34.9909 21.7889 35.1086 22.0029 35.0123 22.3292C34.8733 22.8107 34.7395 23.2975 34.5897 23.7737C34.4934 24.0626 34.4025 24.1963 34.2313 24.1963C34.135 24.1963 34.0173 24.1588 33.8675 24.084C33.0971 23.7095 32.2893 23.5276 31.444 23.5276C31.337 23.5276 31.2247 23.5329 31.1177 23.5383C30.8663 23.5543 30.6202 23.5864 30.3848 23.6881C29.5502 24.0519 29.4165 24.972 30.128 25.5391C30.4864 25.828 30.8984 26.0313 31.321 26.2078C32.0593 26.5128 32.7975 26.807 33.4984 27.1922C35.7025 28.4226 36.3016 31.2206 34.7342 33.1251Z" fill="#CF1CD5"/>
</g>
<path d="M64.688 31.632C64.8053 31.632 64.9173 31.68 65.024 31.776C65.1307 31.872 65.184 32.0267 65.184 32.24C65.184 32.4107 65.056 32.6133 64.8 32.848C64.544 33.072 64.2133 33.2907 63.808 33.504C63.4133 33.7173 62.9867 33.8933 62.528 34.032C62.0693 34.1813 61.6373 34.256 61.232 34.256C60.656 34.256 60.112 34.1067 59.6 33.808C59.0987 33.5093 58.688 33.0773 58.368 32.512C58.048 31.936 57.888 31.2373 57.888 30.416C57.888 29.6907 58.0213 28.9653 58.288 28.24C58.5547 27.5147 58.9067 26.816 59.344 26.144C59.792 25.472 60.2827 24.848 60.816 24.272C61.36 23.696 61.904 23.1947 62.448 22.768C62.992 22.3413 63.4987 22.0107 63.968 21.776C64.448 21.5307 64.8427 21.408 65.152 21.408C65.3653 21.408 65.536 21.488 65.664 21.648C65.8027 21.7973 65.872 21.9627 65.872 22.144C65.872 22.2507 65.84 22.3573 65.776 22.464C65.7227 22.5707 65.6267 22.656 65.488 22.72C64.7947 23.0613 64.0907 23.4987 63.376 24.032C62.6613 24.5653 62 25.1733 61.392 25.856C60.784 26.528 60.2933 27.2587 59.92 28.048C59.5467 28.8267 59.36 29.648 59.36 30.512C59.36 31.2587 59.536 31.8293 59.888 32.224C60.24 32.608 60.72 32.8 61.328 32.8C61.648 32.8 61.9787 32.7413 62.32 32.624C62.672 32.5067 63.0027 32.3733 63.312 32.224C63.632 32.064 63.9093 31.9253 64.144 31.808C64.3893 31.6907 64.5707 31.632 64.688 31.632ZM70.6223 34.16C69.9929 34.16 69.4969 33.92 69.1343 33.44C68.7716 32.96 68.5903 32.336 68.5903 31.568C68.5903 31.2907 68.6276 30.9973 68.7023 30.688C68.7876 30.368 68.8943 30.08 69.0223 29.824C68.9476 29.7493 68.8889 29.648 68.8463 29.52C68.8036 29.3813 68.7823 29.2107 68.7823 29.008C68.7823 28.3787 68.8889 27.8027 69.1023 27.28C69.3156 26.7573 69.5983 26.304 69.9503 25.92C70.3023 25.5253 70.6916 25.2213 71.1183 25.008C71.5556 24.7947 71.9983 24.688 72.4463 24.688C73.1823 24.688 73.7796 24.9547 74.2383 25.488C74.6969 26.0107 74.9263 26.8107 74.9263 27.888C74.9263 28.4533 74.8409 29.0293 74.6703 29.616C74.5103 30.2027 74.2863 30.768 73.9983 31.312C73.7209 31.856 73.3956 32.3413 73.0223 32.768C72.6596 33.1947 72.2703 33.536 71.8543 33.792C71.4489 34.0373 71.0383 34.16 70.6223 34.16ZM70.0783 29.28C70.1423 29.3653 70.1743 29.4773 70.1743 29.616C70.1743 29.776 70.1423 29.936 70.0783 30.096C70.0249 30.256 69.9663 30.4747 69.9023 30.752C69.8383 31.0293 69.8063 31.424 69.8063 31.936C69.8063 32.448 70.0089 32.704 70.4143 32.704C70.8623 32.704 71.2783 32.528 71.6623 32.176C72.0463 31.8133 72.3876 31.3493 72.6863 30.784C72.9849 30.2187 73.2143 29.616 73.3743 28.976C73.5449 28.3253 73.6303 27.712 73.6303 27.136C73.6303 26.7627 73.5609 26.5013 73.4223 26.352C73.2836 26.192 73.0329 26.112 72.6703 26.112C72.2969 26.112 71.9076 26.24 71.5023 26.496C71.1076 26.7413 70.7769 27.0773 70.5103 27.504C70.2436 27.9307 70.1103 28.4107 70.1103 28.944C70.1103 29.0613 70.0996 29.1733 70.0783 29.28ZM79.2451 34.352C79.0105 34.352 78.8291 34.2827 78.7011 34.144C78.5838 34.016 78.5251 33.8667 78.5251 33.696C78.5251 33.5467 78.5891 33.408 78.7171 33.28C78.8558 33.1413 79.0425 33.0187 79.2771 32.912C79.7038 32.688 80.1038 32.464 80.4771 32.24C80.8611 32.016 81.1705 31.776 81.4051 31.52C81.6398 31.264 81.7571 30.992 81.7571 30.704C81.7571 30.4587 81.6771 30.272 81.5171 30.144C81.3571 30.0053 81.1385 29.936 80.8611 29.936C80.7011 29.936 80.4771 29.968 80.1891 30.032C79.9011 30.0853 79.5865 30.1493 79.2451 30.224C78.9145 30.288 78.5891 30.352 78.2691 30.416C77.9491 30.4693 77.6771 30.496 77.4531 30.496C77.0478 30.496 76.7438 30.4 76.5411 30.208C76.3385 30.0053 76.2371 29.7333 76.2371 29.392C76.2371 29.2213 76.3385 28.9653 76.5411 28.624C76.7438 28.2827 77.0105 27.904 77.3411 27.488C77.6825 27.0613 78.0558 26.6347 78.4611 26.208C78.8665 25.7813 79.2771 25.3867 79.6931 25.024C80.1198 24.6613 80.5145 24.368 80.8771 24.144C81.2505 23.92 81.5598 23.808 81.8051 23.808C82.0505 23.808 82.2371 23.888 82.3651 24.048C82.4931 24.208 82.5571 24.4107 82.5571 24.656C82.5571 24.848 82.5251 25.0133 82.4611 25.152C82.3971 25.28 82.2638 25.3813 82.0611 25.456C81.8691 25.5307 81.5705 25.5733 81.1651 25.584C80.7491 25.9147 80.3065 26.2933 79.8371 26.72C79.3785 27.136 78.9571 27.568 78.5731 28.016C78.1998 28.4533 77.9278 28.8747 77.7571 29.28C78.1091 29.1627 78.5358 29.0613 79.0371 28.976C79.5491 28.88 80.0665 28.832 80.5891 28.832C81.4105 28.832 82.0185 29.0187 82.4131 29.392C82.8185 29.7547 83.0211 30.2347 83.0211 30.832C83.0211 31.216 82.8985 31.616 82.6531 32.032C82.4185 32.4373 82.1091 32.816 81.7251 33.168C81.3411 33.52 80.9305 33.8027 80.4931 34.016C80.0558 34.24 79.6398 34.352 79.2451 34.352ZM83.6499 28.88C83.3619 28.8587 83.2285 28.672 83.2499 28.32C83.2605 28.2347 83.3192 28.1333 83.4259 28.016C83.5325 27.888 83.6552 27.8187 83.7939 27.808C84.1245 27.776 84.5299 27.728 85.0099 27.664C85.5005 27.5893 86.0392 27.504 86.6259 27.408C86.7325 26.8853 86.8605 26.336 87.0099 25.76C87.1592 25.184 87.3245 24.624 87.5059 24.08C87.6872 23.5253 87.8792 23.024 88.0819 22.576C88.2845 22.128 88.4979 21.776 88.7219 21.52C88.8392 21.4027 88.9459 21.3227 89.0419 21.28C89.1379 21.2267 89.2232 21.2 89.2979 21.2C89.4472 21.2 89.5645 21.264 89.6499 21.392C89.7459 21.52 89.7939 21.664 89.7939 21.824C89.7939 21.9093 89.7779 21.9947 89.7459 22.08C89.5325 22.6773 89.3032 23.4133 89.0579 24.288C88.8125 25.1627 88.5512 26.1173 88.2739 27.152C89.2552 26.992 90.2365 26.8213 91.2179 26.64C92.1992 26.4587 93.0419 26.2933 93.7459 26.144C93.9485 26.0587 94.1032 26.0747 94.2099 26.192C94.3272 26.3093 94.3859 26.4267 94.3859 26.544C94.3859 26.6933 94.3432 26.8053 94.2579 26.88C94.1832 26.9547 94.1032 27.0187 94.0179 27.072L94.0019 27.088C93.7885 27.1733 93.4685 27.2747 93.0419 27.392C92.6152 27.4987 92.1245 27.616 91.5699 27.744C91.0152 27.8613 90.4232 27.9787 89.7939 28.096C89.1752 28.2133 88.5619 28.32 87.9539 28.416C87.7085 29.3547 87.4579 30.32 87.2019 31.312C86.9565 32.2933 86.7112 33.2587 86.4659 34.208C86.3592 34.592 86.2365 34.832 86.0979 34.928C85.9699 35.0347 85.8312 35.088 85.6819 35.088C85.5112 35.088 85.3619 35.024 85.2339 34.896C85.1165 34.768 85.1005 34.5067 85.1859 34.112L86.3539 28.656C85.7139 28.752 85.1485 28.8213 84.6579 28.864C84.1779 28.9067 83.8419 28.912 83.6499 28.88ZM96.061 28.4C95.773 28.4 95.517 28.336 95.293 28.208C95.0797 28.0693 94.973 27.92 94.973 27.76C94.973 27.664 95.1383 27.5573 95.469 27.44C95.8103 27.312 96.253 27.1893 96.797 27.072C97.341 26.9547 97.933 26.8587 98.573 26.784C99.2237 26.7093 99.8583 26.672 100.477 26.672C101.01 26.672 101.378 26.7413 101.581 26.88C101.784 27.008 101.885 27.152 101.885 27.312C101.885 27.44 101.698 27.5733 101.325 27.712C100.962 27.84 100.488 27.9573 99.901 28.064C99.325 28.16 98.6957 28.24 98.013 28.304C97.341 28.368 96.6903 28.4 96.061 28.4ZM107.217 34.032C106.95 34.032 106.667 33.952 106.369 33.792C106.07 33.632 105.793 33.3707 105.537 33.008C105.291 32.6453 105.089 32.1653 104.929 31.568C104.769 30.9707 104.689 30.2347 104.689 29.36C104.689 28.6667 104.774 27.9627 104.945 27.248C105.126 26.5227 105.403 25.84 105.777 25.2C106.161 24.5493 106.651 23.9893 107.249 23.52C107.857 23.04 108.593 22.7093 109.457 22.528C109.83 22.4427 110.251 22.3627 110.721 22.288C111.201 22.2027 111.686 22.128 112.177 22.064C112.678 21.9893 113.147 21.9307 113.585 21.888C114.033 21.8453 114.411 21.824 114.721 21.824C115.222 21.824 115.579 21.9147 115.793 22.096C116.017 22.2667 116.129 22.432 116.129 22.592C116.129 22.6987 116.086 22.8 116.001 22.896C115.915 22.9813 115.75 23.0347 115.505 23.056C115.409 23.0667 115.206 23.0933 114.897 23.136C114.587 23.168 114.214 23.216 113.777 23.28C113.339 23.344 112.881 23.4133 112.401 23.488C111.931 23.552 111.473 23.6213 111.025 23.696C110.587 23.76 110.209 23.8187 109.889 23.872C109.003 24.0427 108.305 24.336 107.793 24.752C107.281 25.168 106.907 25.6587 106.673 26.224C106.438 26.7893 106.289 27.3707 106.225 27.968C106.651 27.872 107.115 27.7707 107.617 27.664C108.129 27.5573 108.619 27.4613 109.089 27.376C109.558 27.28 109.963 27.2053 110.305 27.152C110.657 27.0987 110.891 27.072 111.009 27.072C111.233 27.072 111.371 27.12 111.425 27.216C111.489 27.312 111.521 27.4347 111.521 27.584C111.521 27.872 111.051 28.192 110.113 28.544C109.185 28.896 107.867 29.1947 106.161 29.44C106.161 29.8027 106.166 30.176 106.177 30.56C106.198 30.9333 106.23 31.28 106.273 31.6C106.315 31.92 106.369 32.176 106.433 32.368C106.497 32.56 106.582 32.656 106.689 32.656C106.934 32.656 107.254 32.5813 107.649 32.432C108.054 32.2827 108.475 32.1013 108.913 31.888C109.35 31.6747 109.75 31.4667 110.113 31.264C110.486 31.0613 110.758 30.9013 110.929 30.784C111.131 30.656 111.35 30.5173 111.585 30.368C111.819 30.2187 111.995 30.144 112.113 30.144C112.262 30.144 112.337 30.2293 112.337 30.4C112.337 30.496 112.251 30.6827 112.081 30.96C111.921 31.2373 111.686 31.552 111.377 31.904C111.067 32.2453 110.699 32.5813 110.273 32.912C109.857 33.232 109.387 33.4987 108.865 33.712C108.353 33.9253 107.803 34.032 107.217 34.032ZM117.453 35.376C117.218 35.376 117.037 35.3067 116.909 35.168C116.792 35.0293 116.733 34.7947 116.733 34.464C116.733 34.2613 116.749 33.9733 116.781 33.6C116.813 33.216 116.856 32.7893 116.909 32.32C116.973 31.84 117.037 31.3493 117.101 30.848C117.176 30.3467 117.245 29.8773 117.309 29.44C117.16 29.44 117.021 29.44 116.893 29.44C116.84 29.44 116.792 29.44 116.749 29.44C116.44 29.6853 116.045 29.808 115.565 29.808C115.362 29.808 115.202 29.7493 115.085 29.632C114.968 29.504 114.909 29.3387 114.909 29.136C114.909 28.9227 114.989 28.7413 115.149 28.592C115.298 28.4427 115.554 28.3627 115.917 28.352C116.408 28.3307 116.93 28.288 117.485 28.224C117.538 27.8933 117.581 27.6587 117.613 27.52C118.008 25.7067 118.509 24.2613 119.117 23.184C119.736 22.096 120.44 21.312 121.229 20.832C122.029 20.3413 122.893 20.096 123.821 20.096C124.066 20.096 124.232 20.1333 124.317 20.208C124.402 20.2827 124.445 20.3893 124.445 20.528C124.445 20.6987 124.386 20.8747 124.269 21.056C124.162 21.2373 123.944 21.36 123.613 21.424C122.813 21.5627 122.109 21.8453 121.501 22.272C120.893 22.6987 120.376 23.3333 119.949 24.176C119.533 25.008 119.192 26.1227 118.925 27.52C118.893 27.6907 118.861 27.872 118.829 28.064C119.586 27.9573 120.354 27.8347 121.133 27.696C121.922 27.5573 122.701 27.4133 123.469 27.264C123.789 25.824 124.173 24.6027 124.621 23.6C125.069 22.5973 125.554 21.792 126.077 21.184C126.61 20.576 127.154 20.1333 127.709 19.856C128.274 19.5787 128.829 19.44 129.373 19.44C129.629 19.44 129.832 19.4987 129.981 19.616C130.13 19.7227 130.205 19.856 130.205 20.016C130.205 20.1867 130.157 20.3253 130.061 20.432C129.965 20.528 129.794 20.6027 129.549 20.656C128.877 20.784 128.248 21.072 127.661 21.52C127.074 21.9573 126.552 22.6187 126.093 23.504C125.634 24.3787 125.25 25.5307 124.941 26.96C125.89 26.7467 126.781 26.544 127.613 26.352C128.456 26.1493 129.208 25.968 129.869 25.808C130.53 25.6373 131.064 25.504 131.469 25.408C131.885 25.312 132.136 25.264 132.221 25.264C132.306 25.264 132.381 25.2907 132.445 25.344C132.509 25.3973 132.541 25.52 132.541 25.712C132.541 25.904 132.322 26.112 131.885 26.336C131.448 26.56 130.856 26.7947 130.109 27.04C129.373 27.2747 128.536 27.5093 127.597 27.744C126.658 27.9787 125.688 28.1973 124.685 28.4C124.6 28.9333 124.514 29.52 124.429 30.16C124.344 30.7893 124.264 31.4293 124.189 32.08C124.114 32.7307 124.045 33.3547 123.981 33.952C123.928 34.5387 123.885 35.056 123.853 35.504C123.821 35.9627 123.805 36.304 123.805 36.528C123.805 36.7733 123.725 36.9707 123.565 37.12C123.416 37.28 123.224 37.36 122.989 37.36C122.84 37.36 122.696 37.296 122.557 37.168C122.429 37.0507 122.365 36.8373 122.365 36.528C122.365 36.4107 122.381 36.1493 122.413 35.744C122.445 35.3493 122.488 34.8587 122.541 34.272C122.605 33.696 122.674 33.0773 122.749 32.416C122.824 31.7547 122.898 31.0987 122.973 30.448C123.058 29.7973 123.144 29.2053 123.229 28.672C122.397 28.832 121.586 28.9707 120.797 29.088C120.008 29.1947 119.282 29.28 118.621 29.344C118.514 30.0693 118.413 30.816 118.317 31.584C118.221 32.3413 118.141 33.0667 118.077 33.76C118.077 33.76 118.082 33.76 118.093 33.76C118.21 33.76 118.317 33.8027 118.413 33.888C118.509 33.9627 118.557 34.08 118.557 34.24C118.557 34.496 118.45 34.7467 118.237 34.992C118.024 35.248 117.762 35.376 117.453 35.376ZM136.452 27.104C136.452 27.4453 136.345 27.7813 136.132 28.112C135.919 28.432 135.636 28.7413 135.284 29.04C134.932 29.328 134.543 29.6 134.116 29.856C133.689 30.112 133.263 30.336 132.836 30.528C132.409 30.72 132.02 30.8747 131.668 30.992C131.583 31.408 131.54 31.776 131.54 32.096C131.54 32.2987 131.588 32.4427 131.684 32.528C131.78 32.6133 131.929 32.656 132.132 32.656C132.58 32.656 133.055 32.576 133.556 32.416C134.057 32.256 134.569 32.048 135.092 31.792C135.615 31.536 136.116 31.264 136.596 30.976C137.076 30.688 137.513 30.416 137.908 30.16C138.313 29.904 138.649 29.696 138.916 29.536C139.183 29.376 139.359 29.296 139.444 29.296C139.572 29.296 139.668 29.3387 139.732 29.424C139.807 29.4987 139.844 29.5893 139.844 29.696C139.844 29.7813 139.711 29.9467 139.444 30.192C139.188 30.4373 138.841 30.7253 138.404 31.056C137.967 31.376 137.476 31.7067 136.932 32.048C136.388 32.3893 135.823 32.7093 135.236 33.008C134.66 33.3067 134.1 33.5467 133.556 33.728C133.023 33.9093 132.543 34 132.116 34C131.561 34 131.129 33.792 130.82 33.376C130.511 32.96 130.356 32.3147 130.356 31.44C130.356 30.8533 130.431 30.2613 130.58 29.664C130.74 29.0667 130.953 28.496 131.22 27.952C131.497 27.3973 131.801 26.9067 132.132 26.48C132.473 26.0427 132.831 25.7013 133.204 25.456C133.577 25.2 133.94 25.072 134.292 25.072C134.964 25.072 135.492 25.2587 135.876 25.632C136.26 26.0053 136.452 26.496 136.452 27.104ZM132.004 29.76C132.335 29.5573 132.676 29.344 133.028 29.12C133.38 28.896 133.705 28.6667 134.004 28.432C134.303 28.1973 134.543 27.952 134.724 27.696C134.916 27.4293 135.012 27.1573 135.012 26.88C135.012 26.4853 134.799 26.288 134.372 26.288C134.105 26.288 133.823 26.4587 133.524 26.8C133.236 27.1307 132.959 27.5627 132.692 28.096C132.425 28.6293 132.196 29.184 132.004 29.76ZM141.069 34.224C140.546 34.224 140.093 34.1067 139.709 33.872C139.335 33.6267 139.047 33.312 138.845 32.928C138.642 32.544 138.541 32.1493 138.541 31.744C138.541 30.8907 138.69 30.112 138.989 29.408C139.287 28.6933 139.661 28.064 140.109 27.52C140.567 26.9653 141.037 26.496 141.516 26.112C142.007 25.728 142.45 25.44 142.845 25.248C143.25 25.0453 143.538 24.944 143.709 24.944C144.05 24.944 144.221 25.1147 144.221 25.456C144.221 25.616 144.114 25.8027 143.901 26.016C143.687 26.2187 143.415 26.4587 143.085 26.736C142.754 27.0133 142.402 27.328 142.029 27.68C141.655 28.0213 141.303 28.4107 140.973 28.848C140.642 29.2747 140.37 29.7547 140.157 30.288C139.943 30.8107 139.837 31.3867 139.837 32.016C139.837 32.656 140.098 32.976 140.621 32.976C141.101 32.976 141.591 32.8853 142.093 32.704C142.605 32.5227 143.106 32.288 143.597 32C144.098 31.7013 144.578 31.392 145.036 31.072C145.495 30.752 145.911 30.448 146.285 30.16C146.658 29.8613 146.973 29.6213 147.229 29.44C147.485 29.2587 147.666 29.168 147.773 29.168C147.986 29.168 148.093 29.2853 148.093 29.52C148.093 29.7013 147.97 29.9413 147.725 30.24C147.479 30.5387 147.149 30.864 146.733 31.216C146.317 31.568 145.853 31.9253 145.341 32.288C144.829 32.64 144.311 32.9653 143.789 33.264C143.266 33.552 142.765 33.7867 142.285 33.968C141.815 34.1387 141.41 34.224 141.069 34.224ZM146.056 28.88C145.768 28.8587 145.635 28.672 145.656 28.32C145.667 28.2347 145.725 28.1333 145.832 28.016C145.939 27.888 146.061 27.8187 146.2 27.808C146.531 27.776 146.936 27.728 147.416 27.664C147.907 27.5893 148.445 27.504 149.032 27.408C149.139 26.8853 149.267 26.336 149.416 25.76C149.565 25.184 149.731 24.624 149.912 24.08C150.093 23.5253 150.285 23.024 150.488 22.576C150.691 22.128 150.904 21.776 151.128 21.52C151.245 21.4027 151.352 21.3227 151.448 21.28C151.544 21.2267 151.629 21.2 151.704 21.2C151.853 21.2 151.971 21.264 152.056 21.392C152.152 21.52 152.2 21.664 152.2 21.824C152.2 21.9093 152.184 21.9947 152.152 22.08C151.939 22.6773 151.709 23.4133 151.464 24.288C151.219 25.1627 150.957 26.1173 150.68 27.152C151.661 26.992 152.643 26.8213 153.624 26.64C154.605 26.4587 155.448 26.2933 156.152 26.144C156.355 26.0587 156.509 26.0747 156.616 26.192C156.733 26.3093 156.792 26.4267 156.792 26.544C156.792 26.6933 156.749 26.8053 156.664 26.88C156.589 26.9547 156.509 27.0187 156.424 27.072L156.408 27.088C156.195 27.1733 155.875 27.2747 155.448 27.392C155.021 27.4987 154.531 27.616 153.976 27.744C153.421 27.8613 152.829 27.9787 152.2 28.096C151.581 28.2133 150.968 28.32 150.36 28.416C150.115 29.3547 149.864 30.32 149.608 31.312C149.363 32.2933 149.117 33.2587 148.872 34.208C148.765 34.592 148.643 34.832 148.504 34.928C148.376 35.0347 148.237 35.088 148.088 35.088C147.917 35.088 147.768 35.024 147.64 34.896C147.523 34.768 147.507 34.5067 147.592 34.112L148.76 28.656C148.12 28.752 147.555 28.8213 147.064 28.864C146.584 28.9067 146.248 28.912 146.056 28.88ZM155.256 33.08C155.053 33.08 154.872 33.0053 154.712 32.856C154.552 32.696 154.472 32.4507 154.472 32.12C154.472 31.8853 154.504 31.56 154.568 31.144C154.632 30.7173 154.717 30.2533 154.824 29.752C154.931 29.2507 155.043 28.7547 155.16 28.264C155.288 27.7627 155.416 27.3147 155.544 26.92C155.672 26.5253 155.784 26.232 155.88 26.04C155.965 25.8907 156.045 25.7947 156.12 25.752C156.205 25.7093 156.285 25.688 156.36 25.688C156.509 25.688 156.637 25.736 156.744 25.832C156.861 25.928 156.92 26.1147 156.92 26.392C156.92 26.552 156.888 26.8187 156.824 27.192C156.771 27.5547 156.696 27.9813 156.6 28.472C156.515 28.952 156.419 29.448 156.312 29.96C156.216 30.4613 156.12 30.9413 156.024 31.4C155.928 31.8587 155.853 32.2427 155.8 32.552C155.757 32.7227 155.683 32.856 155.576 32.952C155.48 33.0373 155.373 33.08 155.256 33.08ZM156.824 24.232C156.579 24.232 156.344 24.1573 156.12 24.008C155.907 23.8587 155.8 23.6187 155.8 23.288C155.8 23.0107 155.864 22.7867 155.992 22.616C156.131 22.4453 156.291 22.3227 156.472 22.248C156.664 22.1627 156.829 22.12 156.968 22.12C157.107 22.12 157.261 22.152 157.432 22.216C157.613 22.2693 157.768 22.376 157.896 22.536C158.024 22.6853 158.088 22.9093 158.088 23.208C158.088 23.4107 158.019 23.592 157.88 23.752C157.741 23.9013 157.571 24.0187 157.368 24.104C157.176 24.1893 156.995 24.232 156.824 24.232ZM161.153 33.6C160.993 33.6 160.833 33.4827 160.673 33.248C160.523 33.0133 160.411 32.6827 160.337 32.256C160.262 31.808 160.193 31.296 160.129 30.72C160.065 30.144 160.011 29.5787 159.969 29.024C159.926 28.4693 159.894 27.9787 159.873 27.552C159.851 27.1253 159.841 26.8373 159.841 26.688C159.841 26.1333 159.926 25.7227 160.097 25.456C160.278 25.1787 160.507 25.04 160.785 25.04C160.977 25.04 161.115 25.0933 161.201 25.2C161.286 25.296 161.329 25.52 161.329 25.872C161.329 26.1067 161.334 26.4107 161.345 26.784C161.355 27.1573 161.371 27.5627 161.393 28C161.414 28.5227 161.435 29.0773 161.457 29.664C161.478 30.24 161.494 30.8107 161.505 31.376C161.761 30.9493 162.054 30.4747 162.385 29.952C162.726 29.4293 163.073 28.896 163.425 28.352C163.777 27.7973 164.118 27.2693 164.449 26.768C164.779 26.2667 165.073 25.8293 165.329 25.456C165.585 25.0827 165.782 24.8107 165.921 24.64C166.102 24.4267 166.267 24.2773 166.417 24.192C166.577 24.1067 166.715 24.064 166.833 24.064C166.993 24.064 167.121 24.1227 167.217 24.24C167.323 24.3573 167.377 24.5227 167.377 24.736C167.377 24.864 167.35 25.008 167.297 25.168C167.254 25.3173 167.174 25.472 167.057 25.632C166.769 26.0693 166.422 26.5813 166.017 27.168C165.611 27.7547 165.19 28.3627 164.753 28.992C164.315 29.6213 163.889 30.2347 163.473 30.832C163.057 31.4187 162.694 31.936 162.385 32.384C161.841 33.1947 161.43 33.6 161.153 33.6ZM174.077 27.104C174.077 27.4453 173.97 27.7813 173.757 28.112C173.544 28.432 173.261 28.7413 172.909 29.04C172.557 29.328 172.168 29.6 171.741 29.856C171.314 30.112 170.888 30.336 170.461 30.528C170.034 30.72 169.645 30.8747 169.293 30.992C169.208 31.408 169.165 31.776 169.165 32.096C169.165 32.2987 169.213 32.4427 169.309 32.528C169.405 32.6133 169.554 32.656 169.757 32.656C170.205 32.656 170.68 32.576 171.181 32.416C171.682 32.256 172.194 32.048 172.717 31.792C173.24 31.536 173.741 31.264 174.221 30.976C174.701 30.688 175.138 30.416 175.533 30.16C175.938 29.904 176.274 29.696 176.541 29.536C176.808 29.376 176.984 29.296 177.069 29.296C177.197 29.296 177.293 29.3387 177.357 29.424C177.432 29.4987 177.469 29.5893 177.469 29.696C177.469 29.7813 177.336 29.9467 177.069 30.192C176.813 30.4373 176.466 30.7253 176.029 31.056C175.592 31.376 175.101 31.7067 174.557 32.048C174.013 32.3893 173.448 32.7093 172.861 33.008C172.285 33.3067 171.725 33.5467 171.181 33.728C170.648 33.9093 170.168 34 169.741 34C169.186 34 168.754 33.792 168.445 33.376C168.136 32.96 167.981 32.3147 167.981 31.44C167.981 30.8533 168.056 30.2613 168.205 29.664C168.365 29.0667 168.578 28.496 168.845 27.952C169.122 27.3973 169.426 26.9067 169.757 26.48C170.098 26.0427 170.456 25.7013 170.829 25.456C171.202 25.2 171.565 25.072 171.917 25.072C172.589 25.072 173.117 25.2587 173.501 25.632C173.885 26.0053 174.077 26.496 174.077 27.104ZM169.629 29.76C169.96 29.5573 170.301 29.344 170.653 29.12C171.005 28.896 171.33 28.6667 171.629 28.432C171.928 28.1973 172.168 27.952 172.349 27.696C172.541 27.4293 172.637 27.1573 172.637 26.88C172.637 26.4853 172.424 26.288 171.997 26.288C171.73 26.288 171.448 26.4587 171.149 26.8C170.861 27.1307 170.584 27.5627 170.317 28.096C170.05 28.6293 169.821 29.184 169.629 29.76Z" fill="#6A6A6A"/>
</g>
<defs>
<filter id="filter0_d_232_1316" x="0.7" y="0.7" width="203.6" height="62.6" filterUnits="userSpaceOnUse" color-interpolation-filters="sRGB">
<feFlood flood-opacity="0" result="BackgroundImageFix"/>
<feColorMatrix in="SourceAlpha" type="matrix" values="0 0 0 0 0 0 0 0 0 0 0 0 0 0 0 0 0 0 127 0" result="hardAlpha"/>
<feOffset dx="5" dy="4"/>
<feGaussianBlur stdDeviation="4.15"/>
<feComposite in2="hardAlpha" operator="out"/>
<feColorMatrix type="matrix" values="0 0 0 0 0 0 0 0 0 0 0 0 0 0 0 0 0 0 0.06 0"/>
<feBlend mode="normal" in2="BackgroundImageFix" result="effect1_dropShadow_232_1316"/>
<feBlend mode="normal" in="SourceGraphic" in2="effect1_dropShadow_232_1316" result="shape"/>
</filter>
<clipPath id="clip0_232_1316">
<rect width="26" height="26" fill="white" transform="translate(18 15)"/>
</clipPath>
</defs>
</svg>
