<svg width="40" height="40" viewBox="0 0 40 40" fill="none" xmlns="http://www.w3.org/2000/svg">
<path d="M22.4844 28.4773H29.318" stroke="#373737" stroke-width="1.95312" stroke-linecap="round" stroke-linejoin="round"/>
<path d="M22.4844 19.375H29.318" stroke="#373737" stroke-width="1.95312" stroke-linecap="round" stroke-linejoin="round"/>
<path d="M10.6816 18.7546L11.9246 21.2351L15.0301 17.5148" stroke="#373737" stroke-width="1.95312" stroke-linecap="round" stroke-linejoin="round"/>
<path d="M10.6816 26.2048L13.7879 30.5533" stroke="#373737" stroke-width="1.95312" stroke-linecap="round" stroke-linejoin="round"/>
<path d="M13.7879 26.2048L10.6816 30.5533" stroke="#373737" stroke-width="1.95312" stroke-linecap="round" stroke-linejoin="round"/>
<path d="M29.941 5.10071C31.1203 5.17939 32.2255 5.70335 33.0329 6.56645C33.8403 7.42955 34.2895 8.56727 34.2895 9.74915V34.0554C34.2896 34.6673 34.1691 35.2732 33.935 35.8386C33.7009 36.4039 33.3577 36.9176 32.925 37.3503C32.4923 37.783 31.9786 38.1262 31.4133 38.3603C30.8479 38.5944 30.242 38.7149 29.6301 38.7148H10.3723C9.76036 38.7149 9.15443 38.5944 8.58908 38.3603C8.02373 38.1262 7.51004 37.783 7.07736 37.3503C6.64468 36.9176 6.30147 36.4039 6.06736 35.8386C5.83324 35.2732 5.71279 34.6673 5.71289 34.0554V9.74915C5.71285 8.56727 6.16201 7.42955 6.96941 6.56645C7.77681 5.70335 8.88207 5.17939 10.0613 5.10071" stroke="#373737" stroke-width="1.95312" stroke-linecap="round" stroke-linejoin="round"/>
<path d="M12.3902 8.81797H27.6105C28.2284 8.81776 28.8208 8.57225 29.2577 8.13539C29.6945 7.69853 29.94 7.10609 29.9402 6.48828V3.61484C29.9402 3.3089 29.88 3.00596 29.7629 2.72331C29.6458 2.44066 29.4742 2.18384 29.2579 1.96751C29.0416 1.75117 28.7847 1.57957 28.5021 1.46249C28.2194 1.34542 27.9165 1.28516 27.6105 1.28516H12.3902C11.7724 1.28516 11.1798 1.5306 10.7429 1.96751C10.306 2.40441 10.0605 2.99697 10.0605 3.61484V6.48828C10.0608 7.10609 10.3063 7.69853 10.7431 8.13539C11.18 8.57225 11.7724 8.81776 12.3902 8.81797Z" stroke="#373737" stroke-width="1.95312" stroke-linecap="round" stroke-linejoin="round"/>
</svg>
