<svg width="189" height="62" viewBox="0 0 189 62" fill="none" xmlns="http://www.w3.org/2000/svg">
<g filter="url(#filter0_d_232_1310)">
<rect x="4" y="5" width="171" height="44" rx="8" fill="white" shape-rendering="crispEdges"/>
<rect x="4.5" y="5.5" width="170" height="43" rx="7.5" stroke="#ECECEC" shape-rendering="crispEdges"/>
<path d="M24.75 28.5H20.25C19.8358 28.5 19.5 28.8358 19.5 29.25V36.75C19.5 37.1642 19.8358 37.5 20.25 37.5H24.75C25.1642 37.5 25.5 37.1642 25.5 36.75V29.25C25.5 28.8358 25.1642 28.5 24.75 28.5Z" fill="#CF1CD5"/>
<path d="M39.75 22.5H35.25C34.8358 22.5 34.5 22.8358 34.5 23.25V36.75C34.5 37.1642 34.8358 37.5 35.25 37.5H39.75C40.1642 37.5 40.5 37.1642 40.5 36.75V23.25C40.5 22.8358 40.1642 22.5 39.75 22.5Z" fill="#CF1CD5"/>
<path d="M32.25 16.5H27.75C27.3358 16.5 27 16.8358 27 17.25V36.75C27 37.1642 27.3358 37.5 27.75 37.5H32.25C32.6642 37.5 33 37.1642 33 36.75V17.25C33 16.8358 32.6642 16.5 32.25 16.5Z" fill="#CF1CD5"/>
<path d="M56.08 34.088C55.8987 34.088 55.744 33.9867 55.616 33.784C55.488 33.592 55.424 33.368 55.424 33.112C55.424 33.0053 55.4453 32.9093 55.488 32.824C55.5413 32.7387 55.6213 32.6747 55.728 32.632C55.8453 32.5787 55.9627 32.5307 56.08 32.488C56.208 32.4347 56.336 32.3813 56.464 32.328C56.432 32.2427 56.4053 32.1413 56.384 32.024C56.3627 31.9067 56.352 31.768 56.352 31.608C56.352 31.4907 56.3733 31.2667 56.416 30.936C56.4693 30.5947 56.5387 30.1893 56.624 29.72C56.7093 29.2507 56.8 28.7547 56.896 28.232C57.0027 27.6987 57.104 27.1813 57.2 26.68C57.3067 26.168 57.4027 25.7093 57.488 25.304C57.68 24.4293 57.9147 23.6453 58.192 22.952C58.48 22.2587 58.864 21.7147 59.344 21.32C59.8347 20.9147 60.48 20.712 61.28 20.712C61.888 20.712 62.4853 20.8453 63.072 21.112C63.6693 21.3787 64.208 21.7573 64.688 22.248C65.1787 22.728 65.568 23.2933 65.856 23.944C66.144 24.5947 66.288 25.304 66.288 26.072C66.288 26.7333 66.1333 27.3627 65.824 27.96C65.5147 28.5467 65.0987 29.1013 64.576 29.624C64.0533 30.1467 63.456 30.632 62.784 31.08C62.1227 31.528 61.4293 31.9387 60.704 32.312C59.9893 32.6747 59.2853 32.9947 58.592 33.272C57.8987 33.56 57.2587 33.8 56.672 33.992C56.5973 34.0133 56.5067 34.0347 56.4 34.056C56.2933 34.0773 56.1867 34.088 56.08 34.088ZM57.6 31.88C58.528 31.496 59.4293 31.1013 60.304 30.696C61.1893 30.2907 61.984 29.8427 62.688 29.352C63.392 28.8507 63.952 28.2907 64.368 27.672C64.784 27.0533 64.992 26.344 64.992 25.544C64.992 25.128 64.896 24.7227 64.704 24.328C64.512 23.9333 64.2453 23.5813 63.904 23.272C63.5733 22.952 63.1947 22.7013 62.768 22.52C62.352 22.328 61.9147 22.232 61.456 22.232C61.04 22.232 60.6667 22.3387 60.336 22.552C60.016 22.7547 59.7387 23.1173 59.504 23.64C59.2693 24.1627 59.0667 24.888 58.896 25.816C58.768 26.392 58.6347 27.016 58.496 27.688C58.3573 28.3493 58.2187 28.984 58.08 29.592C57.952 30.1893 57.8453 30.696 57.76 31.112C57.6747 31.5173 57.6267 31.752 57.616 31.816C57.616 31.8373 57.6107 31.8587 57.6 31.88ZM69.365 33.416C68.9597 33.416 68.6237 33.2293 68.357 32.856C68.101 32.472 67.973 31.976 67.973 31.368C67.973 30.8027 68.1117 30.2427 68.389 29.688C68.677 29.1333 69.0557 28.6 69.525 28.088C69.9943 27.576 70.5063 27.1067 71.061 26.68C71.6157 26.2427 72.1703 25.864 72.725 25.544C73.2903 25.224 73.8077 24.9733 74.277 24.792C74.7463 24.6107 75.1197 24.52 75.397 24.52C75.5463 24.52 75.669 24.552 75.765 24.616C75.861 24.6693 75.909 24.7707 75.909 24.92C75.909 25.016 75.8717 25.1067 75.797 25.192C75.8077 25.192 75.8183 25.192 75.829 25.192C76.0637 25.192 76.181 25.3307 76.181 25.608C76.181 25.704 76.1437 25.9013 76.069 26.2C75.9943 26.488 75.909 26.8507 75.813 27.288C75.717 27.7253 75.6317 28.2107 75.557 28.744C75.4823 29.2667 75.445 29.8 75.445 30.344C75.445 30.8027 75.621 31.032 75.973 31.032C76.3677 31.032 76.7677 30.9413 77.173 30.76C77.5783 30.5787 77.973 30.36 78.357 30.104C78.741 29.8373 79.093 29.576 79.413 29.32C79.733 29.0533 80.005 28.8293 80.229 28.648C80.453 28.4667 80.613 28.376 80.709 28.376C80.7943 28.376 80.869 28.4027 80.933 28.456C80.997 28.5093 81.029 28.5947 81.029 28.712C81.029 28.8187 80.9223 29.0107 80.709 29.288C80.4957 29.5653 80.213 29.88 79.861 30.232C79.509 30.584 79.1143 30.9253 78.677 31.256C78.2397 31.5867 77.7917 31.8587 77.333 32.072C76.8743 32.2853 76.437 32.392 76.021 32.392C75.701 32.392 75.4077 32.296 75.141 32.104C74.885 31.9013 74.677 31.56 74.517 31.08C74.3677 30.6 74.293 29.9387 74.293 29.096V28.696C73.7703 29.56 73.221 30.3493 72.645 31.064C72.0797 31.7787 71.5143 32.3493 70.949 32.776C70.3943 33.2027 69.8663 33.416 69.365 33.416ZM75.093 25.672C75.0397 25.6933 74.965 25.7253 74.869 25.768C74.3783 25.992 73.8663 26.2693 73.333 26.6C72.8103 26.9307 72.2983 27.2987 71.797 27.704C71.3063 28.1093 70.8637 28.5307 70.469 28.968C70.0743 29.4053 69.7597 29.848 69.525 30.296C69.2903 30.744 69.173 31.1813 69.173 31.608C69.173 31.7467 69.1997 31.8533 69.253 31.928C69.317 32.0027 69.4237 32.04 69.573 32.04C69.7863 32.04 70.0637 31.9067 70.405 31.64C70.7463 31.3627 71.1197 31 71.525 30.552C71.941 30.104 72.357 29.608 72.773 29.064C73.189 28.52 73.5837 27.9707 73.957 27.416C74.341 26.8613 74.6717 26.3493 74.949 25.88C74.9917 25.8053 75.0397 25.736 75.093 25.672ZM78.8061 27.88C78.5181 27.8587 78.3848 27.672 78.4061 27.32C78.4168 27.2347 78.4755 27.1333 78.5821 27.016C78.6888 26.888 78.8115 26.8187 78.9501 26.808C79.2808 26.776 79.6861 26.728 80.1661 26.664C80.6568 26.5893 81.1955 26.504 81.7821 26.408C81.8888 25.8853 82.0168 25.336 82.1661 24.76C82.3155 24.184 82.4808 23.624 82.6621 23.08C82.8435 22.5253 83.0355 22.024 83.2381 21.576C83.4408 21.128 83.6541 20.776 83.8781 20.52C83.9955 20.4027 84.1021 20.3227 84.1981 20.28C84.2941 20.2267 84.3795 20.2 84.4541 20.2C84.6035 20.2 84.7208 20.264 84.8061 20.392C84.9021 20.52 84.9501 20.664 84.9501 20.824C84.9501 20.9093 84.9341 20.9947 84.9021 21.08C84.6888 21.6773 84.4595 22.4133 84.2141 23.288C83.9688 24.1627 83.7075 25.1173 83.4301 26.152C84.4115 25.992 85.3928 25.8213 86.3741 25.64C87.3555 25.4587 88.1981 25.2933 88.9021 25.144C89.1048 25.0587 89.2595 25.0747 89.3661 25.192C89.4835 25.3093 89.5421 25.4267 89.5421 25.544C89.5421 25.6933 89.4995 25.8053 89.4141 25.88C89.3395 25.9547 89.2595 26.0187 89.1741 26.072L89.1581 26.088C88.9448 26.1733 88.6248 26.2747 88.1981 26.392C87.7715 26.4987 87.2808 26.616 86.7261 26.744C86.1715 26.8613 85.5795 26.9787 84.9501 27.096C84.3315 27.2133 83.7181 27.32 83.1101 27.416C82.8648 28.3547 82.6141 29.32 82.3581 30.312C82.1128 31.2933 81.8675 32.2587 81.6221 33.208C81.5155 33.592 81.3928 33.832 81.2541 33.928C81.1261 34.0347 80.9875 34.088 80.8381 34.088C80.6675 34.088 80.5181 34.024 80.3901 33.896C80.2728 33.768 80.2568 33.5067 80.3421 33.112L81.5101 27.656C80.8701 27.752 80.3048 27.8213 79.8141 27.864C79.3341 27.9067 78.9981 27.912 78.8061 27.88ZM88.5525 33.416C88.1472 33.416 87.8112 33.2293 87.5445 32.856C87.2885 32.472 87.1605 31.976 87.1605 31.368C87.1605 30.8027 87.2992 30.2427 87.5765 29.688C87.8645 29.1333 88.2432 28.6 88.7125 28.088C89.1818 27.576 89.6938 27.1067 90.2485 26.68C90.8032 26.2427 91.3578 25.864 91.9125 25.544C92.4778 25.224 92.9952 24.9733 93.4645 24.792C93.9338 24.6107 94.3072 24.52 94.5845 24.52C94.7338 24.52 94.8565 24.552 94.9525 24.616C95.0485 24.6693 95.0965 24.7707 95.0965 24.92C95.0965 25.016 95.0592 25.1067 94.9845 25.192C94.9952 25.192 95.0058 25.192 95.0165 25.192C95.2512 25.192 95.3685 25.3307 95.3685 25.608C95.3685 25.704 95.3312 25.9013 95.2565 26.2C95.1818 26.488 95.0965 26.8507 95.0005 27.288C94.9045 27.7253 94.8192 28.2107 94.7445 28.744C94.6698 29.2667 94.6325 29.8 94.6325 30.344C94.6325 30.8027 94.8085 31.032 95.1605 31.032C95.5552 31.032 95.9552 30.9413 96.3605 30.76C96.7658 30.5787 97.1605 30.36 97.5445 30.104C97.9285 29.8373 98.2805 29.576 98.6005 29.32C98.9205 29.0533 99.1925 28.8293 99.4165 28.648C99.6405 28.4667 99.8005 28.376 99.8965 28.376C99.9818 28.376 100.057 28.4027 100.121 28.456C100.185 28.5093 100.217 28.5947 100.217 28.712C100.217 28.8187 100.11 29.0107 99.8965 29.288C99.6832 29.5653 99.4005 29.88 99.0485 30.232C98.6965 30.584 98.3018 30.9253 97.8645 31.256C97.4272 31.5867 96.9792 31.8587 96.5205 32.072C96.0618 32.2853 95.6245 32.392 95.2085 32.392C94.8885 32.392 94.5952 32.296 94.3285 32.104C94.0725 31.9013 93.8645 31.56 93.7045 31.08C93.5552 30.6 93.4805 29.9387 93.4805 29.096V28.696C92.9578 29.56 92.4085 30.3493 91.8325 31.064C91.2672 31.7787 90.7018 32.3493 90.1365 32.776C89.5818 33.2027 89.0538 33.416 88.5525 33.416ZM94.2805 25.672C94.2272 25.6933 94.1525 25.7253 94.0565 25.768C93.5658 25.992 93.0538 26.2693 92.5205 26.6C91.9978 26.9307 91.4858 27.2987 90.9845 27.704C90.4938 28.1093 90.0512 28.5307 89.6565 28.968C89.2618 29.4053 88.9472 29.848 88.7125 30.296C88.4778 30.744 88.3605 31.1813 88.3605 31.608C88.3605 31.7467 88.3872 31.8533 88.4405 31.928C88.5045 32.0027 88.6112 32.04 88.7605 32.04C88.9738 32.04 89.2512 31.9067 89.5925 31.64C89.9338 31.3627 90.3072 31 90.7125 30.552C91.1285 30.104 91.5445 29.608 91.9605 29.064C92.3765 28.52 92.7712 27.9707 93.1445 27.416C93.5285 26.8613 93.8592 26.3493 94.1365 25.88C94.1792 25.8053 94.2272 25.736 94.2805 25.672ZM99.7954 27.4C99.5074 27.4 99.2514 27.336 99.0274 27.208C98.814 27.0693 98.7074 26.92 98.7074 26.76C98.7074 26.664 98.8727 26.5573 99.2034 26.44C99.5447 26.312 99.9874 26.1893 100.531 26.072C101.075 25.9547 101.667 25.8587 102.307 25.784C102.958 25.7093 103.593 25.672 104.211 25.672C104.745 25.672 105.113 25.7413 105.315 25.88C105.518 26.008 105.619 26.152 105.619 26.312C105.619 26.44 105.433 26.5733 105.059 26.712C104.697 26.84 104.222 26.9573 103.635 27.064C103.059 27.16 102.43 27.24 101.747 27.304C101.075 27.368 100.425 27.4 99.7954 27.4ZM107.658 34.088C107.477 34.088 107.322 33.9867 107.194 33.784C107.066 33.592 107.002 33.368 107.002 33.112C107.002 33.0053 107.023 32.9093 107.066 32.824C107.119 32.7387 107.199 32.6747 107.306 32.632C107.423 32.5787 107.541 32.5307 107.658 32.488C107.786 32.4347 107.914 32.3813 108.042 32.328C108.01 32.2427 107.983 32.1413 107.962 32.024C107.941 31.9067 107.93 31.768 107.93 31.608C107.93 31.4907 107.951 31.2667 107.994 30.936C108.047 30.5947 108.117 30.1893 108.202 29.72C108.287 29.2507 108.378 28.7547 108.474 28.232C108.581 27.6987 108.682 27.1813 108.778 26.68C108.885 26.168 108.981 25.7093 109.066 25.304C109.258 24.4293 109.493 23.6453 109.77 22.952C110.058 22.2587 110.442 21.7147 110.922 21.32C111.413 20.9147 112.058 20.712 112.858 20.712C113.466 20.712 114.063 20.8453 114.65 21.112C115.247 21.3787 115.786 21.7573 116.266 22.248C116.757 22.728 117.146 23.2933 117.434 23.944C117.722 24.5947 117.866 25.304 117.866 26.072C117.866 26.7333 117.711 27.3627 117.402 27.96C117.093 28.5467 116.677 29.1013 116.154 29.624C115.631 30.1467 115.034 30.632 114.362 31.08C113.701 31.528 113.007 31.9387 112.282 32.312C111.567 32.6747 110.863 32.9947 110.17 33.272C109.477 33.56 108.837 33.8 108.25 33.992C108.175 34.0133 108.085 34.0347 107.978 34.056C107.871 34.0773 107.765 34.088 107.658 34.088ZM109.178 31.88C110.106 31.496 111.007 31.1013 111.882 30.696C112.767 30.2907 113.562 29.8427 114.266 29.352C114.97 28.8507 115.53 28.2907 115.946 27.672C116.362 27.0533 116.57 26.344 116.57 25.544C116.57 25.128 116.474 24.7227 116.282 24.328C116.09 23.9333 115.823 23.5813 115.482 23.272C115.151 22.952 114.773 22.7013 114.346 22.52C113.93 22.328 113.493 22.232 113.034 22.232C112.618 22.232 112.245 22.3387 111.914 22.552C111.594 22.7547 111.317 23.1173 111.082 23.64C110.847 24.1627 110.645 24.888 110.474 25.816C110.346 26.392 110.213 27.016 110.074 27.688C109.935 28.3493 109.797 28.984 109.658 29.592C109.53 30.1893 109.423 30.696 109.338 31.112C109.253 31.5173 109.205 31.752 109.194 31.816C109.194 31.8373 109.189 31.8587 109.178 31.88ZM120.794 33.304C120.623 33.304 120.479 33.2347 120.362 33.096C120.244 32.9573 120.186 32.7653 120.186 32.52C120.186 32.3387 120.223 32.04 120.298 31.624C120.383 31.1973 120.474 30.7013 120.57 30.136C120.676 29.5707 120.767 28.984 120.842 28.376C120.916 27.7573 120.954 27.1653 120.954 26.6C120.954 26.3227 121.023 26.12 121.162 25.992C121.311 25.8533 121.476 25.784 121.658 25.784C121.828 25.784 121.956 25.8907 122.042 26.104C122.127 26.3173 122.143 26.744 122.09 27.384C122.58 26.296 123.119 25.4213 123.706 24.76C124.303 24.088 124.895 23.608 125.482 23.32C126.068 23.0213 126.596 22.872 127.066 22.872C127.375 22.872 127.599 22.936 127.738 23.064C127.887 23.1813 127.962 23.3147 127.962 23.464C127.962 23.6667 127.876 23.8267 127.706 23.944C127.546 24.0507 127.263 24.1787 126.858 24.328C126.388 24.5093 125.956 24.7227 125.562 24.968C125.178 25.2027 124.81 25.512 124.458 25.896C124.116 26.28 123.78 26.7707 123.45 27.368C123.119 27.9547 122.788 28.68 122.458 29.544C122.127 30.408 121.775 31.448 121.402 32.664C121.338 32.8987 121.252 33.064 121.146 33.16C121.05 33.256 120.932 33.304 120.794 33.304ZM128.662 33.08C128.459 33.08 128.278 33.0053 128.118 32.856C127.958 32.696 127.878 32.4507 127.878 32.12C127.878 31.8853 127.91 31.56 127.974 31.144C128.038 30.7173 128.123 30.2533 128.23 29.752C128.337 29.2507 128.449 28.7547 128.566 28.264C128.694 27.7627 128.822 27.3147 128.95 26.92C129.078 26.5253 129.19 26.232 129.286 26.04C129.371 25.8907 129.451 25.7947 129.526 25.752C129.611 25.7093 129.691 25.688 129.766 25.688C129.915 25.688 130.043 25.736 130.15 25.832C130.267 25.928 130.326 26.1147 130.326 26.392C130.326 26.552 130.294 26.8187 130.23 27.192C130.177 27.5547 130.102 27.9813 130.006 28.472C129.921 28.952 129.825 29.448 129.718 29.96C129.622 30.4613 129.526 30.9413 129.43 31.4C129.334 31.8587 129.259 32.2427 129.206 32.552C129.163 32.7227 129.089 32.856 128.982 32.952C128.886 33.0373 128.779 33.08 128.662 33.08ZM130.23 24.232C129.985 24.232 129.75 24.1573 129.526 24.008C129.313 23.8587 129.206 23.6187 129.206 23.288C129.206 23.0107 129.27 22.7867 129.398 22.616C129.537 22.4453 129.697 22.3227 129.878 22.248C130.07 22.1627 130.235 22.12 130.374 22.12C130.513 22.12 130.667 22.152 130.838 22.216C131.019 22.2693 131.174 22.376 131.302 22.536C131.43 22.6853 131.494 22.9093 131.494 23.208C131.494 23.4107 131.425 23.592 131.286 23.752C131.147 23.9013 130.977 24.0187 130.774 24.104C130.582 24.1893 130.401 24.232 130.23 24.232ZM134.559 32.6C134.399 32.6 134.239 32.4827 134.079 32.248C133.93 32.0133 133.818 31.6827 133.743 31.256C133.668 30.808 133.599 30.296 133.535 29.72C133.471 29.144 133.418 28.5787 133.375 28.024C133.332 27.4693 133.3 26.9787 133.279 26.552C133.258 26.1253 133.247 25.8373 133.247 25.688C133.247 25.1333 133.332 24.7227 133.503 24.456C133.684 24.1787 133.914 24.04 134.191 24.04C134.383 24.04 134.522 24.0933 134.607 24.2C134.692 24.296 134.735 24.52 134.735 24.872C134.735 25.1067 134.74 25.4107 134.751 25.784C134.762 26.1573 134.778 26.5627 134.799 27C134.82 27.5227 134.842 28.0773 134.863 28.664C134.884 29.24 134.9 29.8107 134.911 30.376C135.167 29.9493 135.46 29.4747 135.791 28.952C136.132 28.4293 136.479 27.896 136.831 27.352C137.183 26.7973 137.524 26.2693 137.855 25.768C138.186 25.2667 138.479 24.8293 138.735 24.456C138.991 24.0827 139.188 23.8107 139.327 23.64C139.508 23.4267 139.674 23.2773 139.823 23.192C139.983 23.1067 140.122 23.064 140.239 23.064C140.399 23.064 140.527 23.1227 140.623 23.24C140.73 23.3573 140.783 23.5227 140.783 23.736C140.783 23.864 140.756 24.008 140.703 24.168C140.66 24.3173 140.58 24.472 140.463 24.632C140.175 25.0693 139.828 25.5813 139.423 26.168C139.018 26.7547 138.596 27.3627 138.159 27.992C137.722 28.6213 137.295 29.2347 136.879 29.832C136.463 30.4187 136.1 30.936 135.791 31.384C135.247 32.1947 134.836 32.6 134.559 32.6ZM147.483 26.104C147.483 26.4453 147.377 26.7813 147.163 27.112C146.95 27.432 146.667 27.7413 146.315 28.04C145.963 28.328 145.574 28.6 145.147 28.856C144.721 29.112 144.294 29.336 143.867 29.528C143.441 29.72 143.051 29.8747 142.699 29.992C142.614 30.408 142.571 30.776 142.571 31.096C142.571 31.2987 142.619 31.4427 142.715 31.528C142.811 31.6133 142.961 31.656 143.163 31.656C143.611 31.656 144.086 31.576 144.587 31.416C145.089 31.256 145.601 31.048 146.123 30.792C146.646 30.536 147.147 30.264 147.627 29.976C148.107 29.688 148.545 29.416 148.939 29.16C149.345 28.904 149.681 28.696 149.947 28.536C150.214 28.376 150.39 28.296 150.475 28.296C150.603 28.296 150.699 28.3387 150.763 28.424C150.838 28.4987 150.875 28.5893 150.875 28.696C150.875 28.7813 150.742 28.9467 150.475 29.192C150.219 29.4373 149.873 29.7253 149.435 30.056C148.998 30.376 148.507 30.7067 147.963 31.048C147.419 31.3893 146.854 31.7093 146.267 32.008C145.691 32.3067 145.131 32.5467 144.587 32.728C144.054 32.9093 143.574 33 143.147 33C142.593 33 142.161 32.792 141.851 32.376C141.542 31.96 141.387 31.3147 141.387 30.44C141.387 29.8533 141.462 29.2613 141.611 28.664C141.771 28.0667 141.985 27.496 142.251 26.952C142.529 26.3973 142.833 25.9067 143.163 25.48C143.505 25.0427 143.862 24.7013 144.235 24.456C144.609 24.2 144.971 24.072 145.323 24.072C145.995 24.072 146.523 24.2587 146.907 24.632C147.291 25.0053 147.483 25.496 147.483 26.104ZM143.035 28.76C143.366 28.5573 143.707 28.344 144.059 28.12C144.411 27.896 144.737 27.6667 145.035 27.432C145.334 27.1973 145.574 26.952 145.755 26.696C145.947 26.4293 146.043 26.1573 146.043 25.88C146.043 25.4853 145.83 25.288 145.403 25.288C145.137 25.288 144.854 25.4587 144.555 25.8C144.267 26.1307 143.99 26.5627 143.723 27.096C143.457 27.6293 143.227 28.184 143.035 28.76ZM151.103 32.632C150.793 32.632 150.516 32.456 150.271 32.104C150.025 31.752 149.903 31.2987 149.903 30.744C149.903 30.136 149.983 29.4853 150.143 28.792C150.313 28.0987 150.521 27.3947 150.767 26.68C151.012 25.9547 151.252 25.256 151.487 24.584C151.54 24.4453 151.615 24.344 151.711 24.28C151.817 24.2053 151.977 24.168 152.191 24.168C152.575 24.168 152.767 24.3547 152.767 24.728C152.767 24.8133 152.724 25.0053 152.639 25.304C152.553 25.6027 152.441 25.9707 152.303 26.408C152.175 26.8453 152.041 27.32 151.903 27.832C151.764 28.3333 151.641 28.84 151.535 29.352C151.428 29.864 151.353 30.3387 151.311 30.776C151.481 30.5947 151.673 30.3173 151.887 29.944C152.111 29.5707 152.351 29.1493 152.607 28.68C152.863 28.2 153.129 27.72 153.407 27.24C153.684 26.7493 153.961 26.3013 154.239 25.896C154.527 25.48 154.804 25.1493 155.071 24.904C155.348 24.648 155.604 24.52 155.839 24.52C156.18 24.52 156.468 24.6267 156.703 24.84C156.948 25.0427 157.135 25.4053 157.263 25.928C157.401 26.44 157.471 27.1653 157.471 28.104C157.471 28.6053 157.519 29.0747 157.615 29.512C157.721 29.9493 157.887 30.3013 158.111 30.568C158.345 30.824 158.644 30.952 159.007 30.952C159.551 30.952 160.036 30.856 160.463 30.664C160.889 30.4613 161.257 30.2373 161.567 29.992C161.887 29.736 162.153 29.512 162.367 29.32C162.58 29.1173 162.745 29.016 162.863 29.016C163.108 29.016 163.231 29.144 163.231 29.4C163.231 29.5067 163.151 29.6773 162.991 29.912C162.841 30.136 162.628 30.392 162.351 30.68C162.084 30.9573 161.775 31.2293 161.423 31.496C161.081 31.752 160.713 31.9653 160.319 32.136C159.935 32.3067 159.545 32.392 159.151 32.392C158.415 32.392 157.812 32.248 157.343 31.96C156.884 31.672 156.543 31.1973 156.319 30.536C156.105 29.8747 155.999 28.9893 155.999 27.88C155.999 27.272 155.961 26.8293 155.887 26.552C155.823 26.264 155.7 26.072 155.519 25.976C155.391 26.2 155.225 26.52 155.023 26.936C154.82 27.3413 154.585 27.7947 154.319 28.296C154.063 28.7973 153.791 29.304 153.503 29.816C153.225 30.3173 152.943 30.7813 152.655 31.208C152.367 31.6347 152.089 31.9813 151.823 32.248C151.556 32.504 151.316 32.632 151.103 32.632Z" fill="#6A6A6A"/>
</g>
<defs>
<filter id="filter0_d_232_1310" x="0.7" y="0.7" width="187.6" height="60.6" filterUnits="userSpaceOnUse" color-interpolation-filters="sRGB">
<feFlood flood-opacity="0" result="BackgroundImageFix"/>
<feColorMatrix in="SourceAlpha" type="matrix" values="0 0 0 0 0 0 0 0 0 0 0 0 0 0 0 0 0 0 127 0" result="hardAlpha"/>
<feOffset dx="5" dy="4"/>
<feGaussianBlur stdDeviation="4.15"/>
<feComposite in2="hardAlpha" operator="out"/>
<feColorMatrix type="matrix" values="0 0 0 0 0 0 0 0 0 0 0 0 0 0 0 0 0 0 0.06 0"/>
<feBlend mode="normal" in2="BackgroundImageFix" result="effect1_dropShadow_232_1310"/>
<feBlend mode="normal" in="SourceGraphic" in2="effect1_dropShadow_232_1310" result="shape"/>
</filter>
</defs>
</svg>
