<svg width="44" height="44" viewBox="0 0 44 44" fill="none" xmlns="http://www.w3.org/2000/svg">
<g clip-path="url(#clip0_335_393)">
<path d="M1.23438 1.5177V41.6118C1.23404 41.7258 1.25615 41.8388 1.29946 41.9442C1.34277 42.0496 1.40642 42.1455 1.48678 42.2263C1.56714 42.3072 1.66263 42.3714 1.76781 42.4153C1.87299 42.4593 1.98579 42.482 2.09977 42.4824H42.7697" stroke="#001281" stroke-width="2.14844" stroke-miterlimit="10" stroke-linecap="round"/>
<path d="M14.8574 13.9263H8.24969C7.84104 13.9263 7.50977 14.2575 7.50977 14.6662V34.9526C7.50977 35.3612 7.84104 35.6925 8.24969 35.6925H14.8574C15.2661 35.6925 15.5973 35.3612 15.5973 34.9526V14.6662C15.5973 14.2575 15.2661 13.9263 14.8574 13.9263Z" stroke="#001281" stroke-width="2.14844" stroke-miterlimit="10" stroke-linecap="round"/>
<path d="M28.2038 2.83337H21.9346C21.4325 2.83337 21.0254 3.24044 21.0254 3.74259V34.7832C21.0254 35.2854 21.4325 35.6924 21.9346 35.6924H28.2038C28.7059 35.6924 29.113 35.2854 29.113 34.7832V3.74259C29.113 3.24044 28.7059 2.83337 28.2038 2.83337Z" stroke="#001281" stroke-width="2.14844" stroke-miterlimit="10" stroke-linecap="round"/>
<path d="M41.824 10.0591H35.3417C34.8984 10.0591 34.5391 10.4184 34.5391 10.8617V34.8899C34.5391 35.3332 34.8984 35.6925 35.3417 35.6925H41.824C42.2673 35.6925 42.6266 35.3332 42.6266 34.8899V10.8617C42.6266 10.4184 42.2673 10.0591 41.824 10.0591Z" stroke="#001281" stroke-width="2.14844" stroke-miterlimit="10" stroke-linecap="round"/>
</g>
<defs>
<clipPath id="clip0_335_393">
<rect width="44" height="44" fill="white"/>
</clipPath>
</defs>
</svg>
