<svg width="28" height="28" viewBox="0 0 28 28" fill="none" xmlns="http://www.w3.org/2000/svg">
<g clip-path="url(#clip0_333_362)">
<path d="M27.1792 11.6129L21.851 11.5445L18.7743 15.8949L17.7429 12.5781L17.1927 10.8079L15.4214 10.2566L12.1035 9.22523L16.4539 6.14852L16.3866 0.820312L20.6572 4.00695L25.7027 2.29688L23.9915 7.34344L27.1792 11.6129Z" stroke="#454545" stroke-width="1.36719" stroke-linecap="round" stroke-linejoin="round"/>
<path d="M17.7432 12.5781L3.62127 26.6989C3.31357 27.0066 2.89623 27.1795 2.46108 27.1795C2.02592 27.1795 1.60858 27.0066 1.30088 26.6989C0.993178 26.3912 0.820313 25.9739 0.820312 25.5387C0.820312 25.1036 0.993178 24.6862 1.30088 24.3785L15.4217 10.2566L17.192 10.8067L17.7432 12.5781Z" stroke="#454545" stroke-width="1.36719" stroke-linecap="round" stroke-linejoin="round"/>
<path d="M25.7031 15.6898L27.1797 17.1664" stroke="#454545" stroke-width="1.36719" stroke-linecap="round" stroke-linejoin="round"/>
<path d="M22.2715 17.6733V19.7635" stroke="#454545" stroke-width="1.36719" stroke-linecap="round" stroke-linejoin="round"/>
<path d="M10.327 5.72852H8.23633" stroke="#454545" stroke-width="1.36719" stroke-linecap="round" stroke-linejoin="round"/>
<path d="M12.3105 2.29688L10.834 0.820312" stroke="#454545" stroke-width="1.36719" stroke-linecap="round" stroke-linejoin="round"/>
</g>
<defs>
<clipPath id="clip0_333_362">
<rect width="28" height="28" fill="white"/>
</clipPath>
</defs>
</svg>
