<svg width="44" height="44" viewBox="0 0 44 44" fill="none" xmlns="http://www.w3.org/2000/svg">
<g clip-path="url(#clip0_335_429)">
<path d="M15.1592 15.0219C7.60439 15.0219 1.39454 21.1458 1.39454 28.7031C1.39175 30.8643 1.90312 32.9952 2.88642 34.9198L1.39454 42.3801L8.94072 40.8882C11.0264 41.951 13.3498 42.461 15.6888 42.3696C18.0279 42.2781 20.3044 41.5881 22.3006 40.3656C24.2969 39.1432 25.9462 37.429 27.0909 35.3872C28.2356 33.3453 28.8374 31.0439 28.8387 28.7031" stroke="#001281" stroke-width="2.14844" stroke-linecap="round" stroke-linejoin="round"/>
<path d="M15.1602 15.0218C15.1608 17.3634 15.7623 19.6656 16.9071 21.7083C18.0519 23.751 19.7016 25.4657 21.6986 26.6885C23.6955 27.9113 25.9728 28.6012 28.3126 28.6923C30.6524 28.7833 32.9765 28.2725 35.0624 27.2086L42.6043 28.7031L41.1124 21.2403C42.096 19.3152 42.6074 17.1836 42.6043 15.0218C42.6043 7.46619 36.3945 1.34229 28.8397 1.34229C27.0432 1.34217 25.2644 1.69593 23.6046 2.38335C21.9449 3.07077 20.4368 4.07839 19.1665 5.34868C17.8963 6.61896 16.8886 8.12702 16.2012 9.78675C15.5138 11.4465 15.16 13.2254 15.1602 15.0218Z" stroke="#001281" stroke-width="2.14844" stroke-linecap="round" stroke-linejoin="round"/>
<path d="M26.1035 11.5911C26.1045 11.0526 26.265 10.5265 26.5648 10.0791C26.8645 9.63168 27.29 9.28309 27.7877 9.07728C28.2853 8.87148 28.8328 8.81768 29.3609 8.92268C29.8891 9.02768 30.3744 9.28677 30.7555 9.66726C31.1366 10.0477 31.3964 10.5326 31.5022 11.0606C31.6081 11.5886 31.5551 12.1361 31.3501 12.6341C31.1451 13.1321 30.7972 13.5582 30.3502 13.8586C29.9033 14.159 29.3774 14.3204 28.8389 14.3222V17.0722" stroke="#001281" stroke-width="2.14844" stroke-linecap="round" stroke-linejoin="round"/>
<path d="M10.3711 31.4368H19.9462" stroke="#001281" stroke-width="2.14844" stroke-linecap="round" stroke-linejoin="round"/>
<path d="M20.6295 25.9651H10.3711" stroke="#001281" stroke-width="2.14844" stroke-linecap="round" stroke-linejoin="round"/>
</g>
<defs>
<clipPath id="clip0_335_429">
<rect width="44" height="44" fill="white"/>
</clipPath>
</defs>
</svg>
