<svg width="28" height="28" viewBox="0 0 28 28" fill="none" xmlns="http://www.w3.org/2000/svg">
<g clip-path="url(#clip0_252_1558)">
<path d="M16.6359 0C10.3698 0 5.27187 5.09791 5.27187 11.3641C5.27187 14.2023 6.31783 16.8009 8.04448 18.7946L0.240242 26.5997C-0.0801172 26.92 -0.0800625 27.4395 0.240297 27.7598C0.560656 28.0802 1.08002 28.0801 1.40038 27.7598L9.20451 19.9548C11.1984 21.6819 13.7973 22.7281 16.6359 22.7281C22.9021 22.7281 28 17.6302 28 11.3641C28 5.09791 22.9021 0 16.6359 0ZM16.6359 21.0875C11.2744 21.0875 6.9125 16.7256 6.9125 11.3641C6.9125 6.00255 11.2744 1.64062 16.6359 1.64062C21.9974 1.64062 26.3594 6.00255 26.3594 11.3641C26.3594 16.7256 21.9974 21.0875 16.6359 21.0875Z" fill="#454545"/>
</g>
<defs>
<clipPath id="clip0_252_1558">
<rect width="28" height="28" fill="white"/>
</clipPath>
</defs>
</svg>
