<svg width="28" height="28" viewBox="0 0 28 28" fill="none" xmlns="http://www.w3.org/2000/svg">
<g clip-path="url(#clip0_333_382)">
<path d="M27.6535 23.1383L23.4864 18.9711C24.0546 18.2579 24.4457 17.4201 24.6278 16.5266C24.8099 15.633 24.7777 14.709 24.5338 13.8302C24.29 12.9515 23.8415 12.143 23.225 11.471C22.6085 10.799 21.8416 10.2826 20.9871 9.96412V7.14224C20.9878 7.12204 20.986 7.10183 20.9817 7.08208V7.07662C20.9807 7.05438 20.977 7.03234 20.9707 7.01099C20.9707 7.00005 20.9653 6.99458 20.9653 6.98365C20.9653 6.97271 20.9598 6.95083 20.9543 6.93443V6.92896C20.9543 6.91802 20.9489 6.91255 20.9434 6.90162C20.9379 6.89068 20.9379 6.89068 20.9379 6.88521C20.9319 6.87523 20.9281 6.86402 20.927 6.8524C20.927 6.84693 20.9215 6.84146 20.9215 6.83599C20.9215 6.83052 20.916 6.83052 20.916 6.82505C20.9097 6.8118 20.9023 6.799 20.8942 6.78677C20.8887 6.7813 20.8887 6.77584 20.8832 6.77037C20.8778 6.7649 20.8668 6.74302 20.8559 6.73208C20.8559 6.72662 20.8504 6.72662 20.8504 6.72115C20.8504 6.71568 20.8449 6.71568 20.8449 6.71021C20.8449 6.70474 20.834 6.6938 20.8285 6.68833L20.7957 6.65552C20.7928 6.65257 20.7908 6.64873 20.7903 6.64458L14.4629 0.339116C14.4465 0.32271 14.4246 0.306303 14.4082 0.289897C14.4028 0.289897 14.4028 0.284428 14.3973 0.284428C14.3918 0.284428 14.3864 0.27896 14.3864 0.273491C14.3809 0.268022 14.3699 0.262553 14.3645 0.257085C14.359 0.257085 14.359 0.251616 14.3535 0.251616C14.3481 0.251616 14.3371 0.240678 14.3317 0.23521C14.3262 0.229741 14.3207 0.229741 14.3098 0.224272C14.3098 0.222822 14.3092 0.221431 14.3082 0.220405C14.3072 0.21938 14.3058 0.218803 14.3043 0.218803C14.2798 0.205578 14.2542 0.194596 14.2278 0.185991C14.2236 0.185413 14.2198 0.183492 14.2168 0.180522C14.2059 0.175053 14.2004 0.175053 14.1895 0.169585C14.184 0.169585 14.184 0.169585 14.1785 0.164116L14.1621 0.158647H14.1512C14.1457 0.158647 14.1348 0.153178 14.1293 0.153178C14.1074 0.14771 14.0801 0.14771 14.0582 0.142241H0.766435C0.676474 0.140334 0.587046 0.156509 0.503454 0.189809C0.419862 0.223109 0.343808 0.272855 0.2798 0.336098C0.215793 0.39934 0.165136 0.474791 0.130833 0.557977C0.0965308 0.641162 0.0792808 0.730389 0.0801064 0.820366V27.1797C0.0801057 27.2697 0.0978776 27.3589 0.132402 27.442C0.166927 27.5251 0.217525 27.6006 0.281292 27.6641C0.34506 27.7276 0.420741 27.7779 0.503995 27.8121C0.587248 27.8463 0.676434 27.8637 0.766435 27.8633H20.3063C20.4876 27.8633 20.6615 27.7913 20.7896 27.6631C20.9179 27.5349 20.9899 27.361 20.9899 27.1797V20.7813C21.5399 20.5746 22.0559 20.2871 22.5211 19.9282L26.6938 24.1008C26.8211 24.2292 26.9942 24.302 27.175 24.3032C27.2648 24.3039 27.3537 24.2863 27.4365 24.2515C27.5192 24.2167 27.594 24.1654 27.6563 24.1008C27.7198 24.0377 27.7701 23.9627 27.8044 23.8799C27.8387 23.7972 27.8562 23.7085 27.856 23.619C27.8557 23.5295 27.8377 23.4409 27.8029 23.3584C27.7682 23.2759 27.7174 23.2011 27.6535 23.1383ZM14.6653 2.47193L18.6192 6.42583H14.6653V2.47193ZM19.6145 26.4961H1.44729V1.50396H13.3035V7.10943C13.3035 7.29073 13.3756 7.4646 13.5038 7.5928C13.632 7.721 13.8058 7.79302 13.9871 7.79302H19.6199V9.63052C19.4038 9.60671 19.1866 9.59393 18.9692 9.59224C17.4375 9.59224 15.9686 10.2007 14.8856 11.2837C13.8026 12.3667 13.1942 13.8356 13.1942 15.3672C13.1942 16.8989 13.8026 18.3678 14.8856 19.4508C15.9686 20.5338 17.4375 21.1422 18.9692 21.1422C19.1867 21.1433 19.4041 21.1305 19.6199 21.104V26.4961H19.6145ZM19.6145 19.7313C19.3991 19.7644 19.1816 19.7809 18.9637 19.7805C17.7947 19.7805 16.6735 19.3161 15.8469 18.4895C15.0203 17.6629 14.5559 16.5417 14.5559 15.3727C14.5559 14.2037 15.0203 13.0825 15.8469 12.2559C16.6735 11.4293 17.7947 10.9649 18.9637 10.9649C19.666 10.9659 20.3578 11.1346 20.9817 11.4571C21.7016 11.8283 22.3054 12.3905 22.727 13.0822C23.1485 13.7738 23.3715 14.5682 23.3715 15.3782C23.3715 16.1882 23.1485 16.9825 22.727 17.6742C22.3054 18.3658 21.7016 18.9281 20.9817 19.2993C20.5514 19.514 20.09 19.6597 19.6145 19.7313Z" fill="#454545"/>
<path d="M12.2629 8.88672H3.93945C3.75815 8.88672 3.58428 8.95874 3.45608 9.08694C3.32788 9.21514 3.25586 9.38901 3.25586 9.57031C3.25586 9.75161 3.32788 9.92549 3.45608 10.0537C3.58428 10.1819 3.75815 10.2539 3.93945 10.2539H12.2629C12.4442 10.2539 12.6181 10.1819 12.7463 10.0537C12.8745 9.92549 12.9465 9.75161 12.9465 9.57031C12.9465 9.38901 12.8745 9.21514 12.7463 9.08694C12.6181 8.95874 12.4442 8.88672 12.2629 8.88672Z" fill="#454545"/>
<path d="M10.0098 12.168H3.93945C3.75815 12.168 3.58428 12.24 3.45608 12.3682C3.32788 12.4964 3.25586 12.6703 3.25586 12.8516C3.25586 13.0329 3.32788 13.2067 3.45608 13.3349C3.58428 13.4631 3.75815 13.5352 3.93945 13.5352H10.0098C10.1911 13.5352 10.3649 13.4631 10.4931 13.3349C10.6213 13.2067 10.6934 13.0329 10.6934 12.8516C10.6934 12.6703 10.6213 12.4964 10.4931 12.3682C10.3649 12.24 10.1911 12.168 10.0098 12.168Z" fill="#454545"/>
<path d="M10.0098 15.4492H3.93945C3.75815 15.4492 3.58428 15.5212 3.45608 15.6494C3.32788 15.7776 3.25586 15.9515 3.25586 16.1328C3.25586 16.3141 3.32788 16.488 3.45608 16.6162C3.58428 16.7444 3.75815 16.8164 3.93945 16.8164H10.0098C10.1911 16.8164 10.3649 16.7444 10.4931 16.6162C10.6213 16.488 10.6934 16.3141 10.6934 16.1328C10.6934 15.9515 10.6213 15.7776 10.4931 15.6494C10.3649 15.5212 10.1911 15.4492 10.0098 15.4492Z" fill="#454545"/>
</g>
<defs>
<clipPath id="clip0_333_382">
<rect width="28" height="28" fill="white"/>
</clipPath>
</defs>
</svg>
