<svg width="28" height="28" viewBox="0 0 28 28" fill="none" xmlns="http://www.w3.org/2000/svg">
<g clip-path="url(#clip0_249_1398)">
<path d="M14 28C6.2913 28 0 21.7082 0 14C0 6.2913 6.2918 0 14 0C21.7087 0 28 6.29174 28 14C28 21.7087 21.7083 28 14 28ZM14 1.64062C7.18501 1.64062 1.64062 7.18501 1.64062 14C1.64062 20.815 7.18501 26.3594 14 26.3594C20.815 26.3594 26.3594 20.815 26.3594 14C26.3594 7.18501 20.815 1.64062 14 1.64062Z" fill="#454545"/>
<path d="M14 18.1016C13.547 18.1016 13.1797 17.7343 13.1797 17.2812V16.4033C13.1797 14.9436 13.9653 13.5825 15.2299 12.8509C15.9892 12.4117 16.4609 11.5947 16.4609 10.7188C16.4609 9.36179 15.357 8.25781 14 8.25781C12.643 8.25781 11.5391 9.36179 11.5391 10.7188C11.5391 11.1718 11.1718 11.5391 10.7188 11.5391C10.2657 11.5391 9.89844 11.1718 9.89844 10.7188C9.89844 8.45715 11.7384 6.61719 14 6.61719C16.2616 6.61719 18.1016 8.45715 18.1016 10.7188C18.1016 12.1784 17.316 13.5395 16.0514 14.2711C15.292 14.7103 14.8203 15.5274 14.8203 16.4033V17.2812C14.8203 17.7343 14.453 18.1016 14 18.1016Z" fill="#454545"/>
<path d="M14 21.3828C14.453 21.3828 14.8203 21.0155 14.8203 20.5625C14.8203 20.1095 14.453 19.7422 14 19.7422C13.547 19.7422 13.1797 20.1095 13.1797 20.5625C13.1797 21.0155 13.547 21.3828 14 21.3828Z" fill="#454545"/>
</g>
<defs>
<clipPath id="clip0_249_1398">
<rect width="28" height="28" fill="white"/>
</clipPath>
</defs>
</svg>
