<svg width="28" height="28" viewBox="0 0 28 28" fill="none" xmlns="http://www.w3.org/2000/svg">
<path d="M15.1782 18.4128C16.5724 18.4128 17.9234 17.9294 19.0011 17.045C20.0788 16.1606 20.8165 14.9299 21.0886 13.5626C21.3606 12.1952 21.1501 10.7759 20.493 9.54631C19.8358 8.31677 18.7727 7.35311 17.4847 6.81954C16.1967 6.28596 14.7636 6.21548 13.4294 6.6201C12.0953 7.02472 10.9427 7.87941 10.1681 9.03854C9.39352 10.1977 9.04478 11.5895 9.18133 12.977C9.31788 14.3644 9.93127 15.6616 10.917 16.6474C11.4752 17.2089 12.1393 17.6541 12.8707 17.9571C13.6022 18.2601 14.3865 18.415 15.1782 18.4128ZM10.5479 13.2683H12.4193C12.5527 14.5469 13.0487 15.7703 13.9002 16.9236C13.0572 16.6855 12.2972 16.2175 11.7051 15.5719C11.113 14.9263 10.7123 14.1287 10.5479 13.2683ZM16.8276 13.2683C16.5569 14.7049 15.8082 15.8884 15.2904 16.5676C14.4121 15.5203 13.8931 14.4151 13.7416 13.2683H16.8276ZM13.7274 11.9558C13.9035 10.3053 14.7615 8.93322 15.3347 8.18236C16.3343 9.374 16.8659 10.64 16.925 11.9558H13.7274ZM16.7111 16.8438C17.2875 15.9852 17.935 14.7432 18.1604 13.2683H19.8081C19.6522 14.0841 19.2837 14.8443 18.74 15.4721C18.1962 16.0999 17.4963 16.573 16.7111 16.8438ZM19.871 11.9558H18.2386C18.191 10.5591 17.7196 9.22525 16.8325 7.97236C17.6622 8.2837 18.3873 8.82253 18.9247 9.52709C19.4621 10.2316 19.7901 11.0734 19.871 11.9558ZM13.9647 7.83181C13.3156 8.78119 12.5576 10.2288 12.4094 11.9558H10.485C10.5734 10.9951 10.9543 10.0847 11.5764 9.34725C12.1984 8.60983 13.0316 8.08091 13.9636 7.83181H13.9647Z" fill="#454545"/>
<path d="M21.0859 20.983H15.3984C15.2244 20.983 15.0575 21.0522 14.9344 21.1752C14.8113 21.2983 14.7422 21.4652 14.7422 21.6393C14.7422 21.8133 14.8113 21.9803 14.9344 22.1033C15.0575 22.2264 15.2244 22.2955 15.3984 22.2955H21.0859C21.26 22.2955 21.4269 22.2264 21.55 22.1033C21.673 21.9803 21.7422 21.8133 21.7422 21.6393C21.7422 21.4652 21.673 21.2983 21.55 21.1752C21.4269 21.0522 21.26 20.983 21.0859 20.983Z" fill="#454545"/>
<path d="M12.7414 20.983H9.42188C9.24783 20.983 9.08091 21.0522 8.95784 21.1752C8.83476 21.2983 8.76562 21.4652 8.76562 21.6393C8.76562 21.8133 8.83476 21.9803 8.95784 22.1033C9.08091 22.2264 9.24783 22.2955 9.42188 22.2955H12.7414C12.8276 22.2955 12.9129 22.2786 12.9925 22.2456C13.0722 22.2126 13.1445 22.1643 13.2054 22.1033C13.2664 22.0424 13.3147 21.97 13.3477 21.8904C13.3807 21.8108 13.3977 21.7255 13.3977 21.6393C13.3977 21.5531 13.3807 21.4678 13.3477 21.3881C13.3147 21.3085 13.2664 21.2362 13.2054 21.1752C13.1445 21.1143 13.0722 21.066 12.9925 21.033C12.9129 21 12.8276 20.983 12.7414 20.983Z" fill="#454545"/>
<path d="M21.0214 0.726196H2.82031V27.2737H21.0214C22.1236 27.2718 23.1801 26.8329 23.9592 26.0533C24.7383 25.2737 25.1765 24.2169 25.1777 23.1147V4.88518C25.1765 3.78298 24.7383 2.72621 23.9592 1.94658C23.1801 1.16695 22.1236 0.728078 21.0214 0.726196ZM4.13281 2.0387H5.37586V25.9612H4.13281V2.0387ZM23.8673 23.1147C23.8677 23.4884 23.7944 23.8585 23.6517 24.2038C23.5089 24.5491 23.2995 24.863 23.0354 25.1273C22.7713 25.3917 22.4577 25.6014 22.1125 25.7445C21.7673 25.8876 21.3973 25.9612 21.0236 25.9612H6.68836V2.0387H21.0214C21.3951 2.0387 21.7651 2.11234 22.1103 2.25543C22.4555 2.39851 22.7691 2.60822 23.0332 2.87258C23.2973 3.13693 23.5067 3.45075 23.6495 3.79609C23.7922 4.14142 23.8655 4.5115 23.8652 4.88518L23.8673 23.1147Z" fill="#454545"/>
</svg>
