<svg width="40" height="40" viewBox="0 0 40 40" fill="none" xmlns="http://www.w3.org/2000/svg">
<g clip-path="url(#clip0_338_2219)">
<path d="M32.4609 7.54048H1.35156V4.44517C1.35156 3.62424 1.67767 2.83693 2.25816 2.25645C2.83864 1.67597 3.62595 1.34985 4.44688 1.34985H29.3687C30.1891 1.35068 30.9756 1.67716 31.5554 2.25755C32.1353 2.83795 32.4609 3.62478 32.4609 4.44517V7.54048Z" stroke="#373737" stroke-width="1.95312" stroke-linecap="round" stroke-linejoin="round"/>
<path d="M24.7207 7.54048V1.34985" stroke="#373737" stroke-width="1.95312" stroke-linecap="round" stroke-linejoin="round"/>
<path d="M36.3293 34.7813H25.4957C24.88 34.7813 24.2896 35.0258 23.8542 35.461C23.4188 35.8963 23.174 36.4867 23.1738 37.1023V38.65H38.6512V37.1023C38.6512 36.7975 38.5911 36.4956 38.4744 36.2139C38.3577 35.9323 38.1867 35.6763 37.9711 35.4608C37.7554 35.2453 37.4995 35.0743 37.2178 34.9577C36.9361 34.8411 36.6342 34.7811 36.3293 34.7813Z" stroke="#373737" stroke-width="1.95312" stroke-linecap="round" stroke-linejoin="round"/>
<path d="M33.2348 24.557V22.3992H28.5949V24.557C28.5948 26.1774 28.1153 27.7616 27.2168 29.1101C26.0965 30.7893 25.4985 32.7626 25.498 34.7812H36.3293C36.3289 32.7626 35.7308 30.7893 34.6105 29.1101C33.7124 27.7616 33.2336 26.1773 33.2348 24.557Z" stroke="#373737" stroke-width="1.95312" stroke-linecap="round" stroke-linejoin="round"/>
<path d="M33.2353 18.5295H28.5955C28.0891 18.5397 27.6069 18.748 27.2523 19.1098C26.8978 19.4715 26.6992 19.9578 26.6992 20.4643C26.6992 20.9708 26.8978 21.4571 27.2523 21.8189C27.6069 22.1806 28.0891 22.3889 28.5955 22.3991H33.2392C33.7456 22.3889 34.2279 22.1806 34.5824 21.8189C34.9369 21.4571 35.1355 20.9708 35.1355 20.4643C35.1355 19.9578 34.9369 19.4715 34.5824 19.1098C34.2279 18.748 33.7456 18.5397 33.2392 18.5295H33.2353Z" stroke="#373737" stroke-width="1.95312" stroke-linecap="round" stroke-linejoin="round"/>
<path d="M33.2355 16.2078C33.2357 16.6671 33.0997 17.1161 32.8446 17.498C32.5896 17.8799 32.227 18.1776 31.8028 18.3535C31.3785 18.5294 30.9116 18.5755 30.4612 18.4859C30.0107 18.3964 29.5969 18.1754 29.2721 17.8507C28.9473 17.526 28.7261 17.1123 28.6365 16.6619C28.5468 16.2114 28.5928 15.7445 28.7685 15.3202C28.9442 14.8959 29.2418 14.5332 29.6236 14.2781C30.0055 14.0229 30.4544 13.8867 30.9137 13.8867C31.5293 13.8867 32.1198 14.1312 32.5552 14.5665C32.9906 15.0018 33.2353 15.5921 33.2355 16.2078Z" stroke="#373737" stroke-width="1.95312" stroke-linecap="round" stroke-linejoin="round"/>
<path d="M32.4609 14.4892V7.54077H1.35156V31.6853C1.35146 32.0919 1.43145 32.4944 1.58695 32.8701C1.74246 33.2457 1.97045 33.587 2.25788 33.8745C2.54532 34.162 2.88658 34.3901 3.26217 34.5457C3.63776 34.7013 4.04033 34.7814 4.44688 34.7814H25.4961" stroke="#373737" stroke-width="1.95312" stroke-linecap="round" stroke-linejoin="round"/>
<path d="M21.0848 30.1375H5.99414" stroke="#373737" stroke-width="1.95312" stroke-linecap="round" stroke-linejoin="round"/>
<path d="M11.7988 30.1375V27.0422" stroke="#373737" stroke-width="1.95312" stroke-linecap="round" stroke-linejoin="round"/>
<path d="M16.4414 30.1376V24.7205" stroke="#373737" stroke-width="1.95312" stroke-linecap="round" stroke-linejoin="round"/>
<path d="M21.084 30.1375V22.3992" stroke="#373737" stroke-width="1.95312" stroke-linecap="round" stroke-linejoin="round"/>
<path d="M15.2816 16.9819C15.2816 17.9003 15.0093 18.7982 14.499 19.5618C13.9888 20.3255 13.2635 20.9207 12.415 21.2722C11.5664 21.6236 10.6327 21.7156 9.73194 21.5364C8.83114 21.3572 8.00371 20.915 7.35427 20.2655C6.70483 19.6161 6.26255 18.7886 6.08337 17.8878C5.90419 16.987 5.99615 16.0533 6.34763 15.2048C6.6991 14.3563 7.2943 13.631 8.05796 13.1207C8.82162 12.6105 9.71945 12.3381 10.6379 12.3381C11.8695 12.3381 13.0506 12.8274 13.9215 13.6983C14.7924 14.5691 15.2816 15.7503 15.2816 16.9819Z" stroke="#373737" stroke-width="1.95312" stroke-linecap="round" stroke-linejoin="round"/>
<path d="M10.6371 12.3381V16.9819H5.99414C5.99414 15.7504 6.48328 14.5694 7.35399 13.6985C8.22469 12.8277 9.40565 12.3383 10.6371 12.3381Z" stroke="#373737" stroke-width="1.95312" stroke-linecap="round" stroke-linejoin="round"/>
</g>
<defs>
<clipPath id="clip0_338_2219">
<rect width="40" height="40" fill="white"/>
</clipPath>
</defs>
</svg>
