<svg width="28" height="28" viewBox="0 0 28 28" fill="none" xmlns="http://www.w3.org/2000/svg">
<path d="M25.1289 7.13672V27.1797H2.87109V0.820312H18.8125L25.1289 7.13672Z" stroke="#454545" stroke-width="1.36719" stroke-linecap="round" stroke-linejoin="round"/>
<path d="M25.1016 7.10938H18.8125V0.820312L25.1016 7.10938Z" stroke="#454545" stroke-width="1.36719" stroke-linecap="round" stroke-linejoin="round"/>
<path d="M18.8125 0.820312L25.1016 7.10938L25.1289 7.13672" stroke="#454545" stroke-width="1.36719" stroke-linecap="round" stroke-linejoin="round"/>
<path d="M6.17969 4.10156H15.5312" stroke="#454545" stroke-width="1.36719" stroke-linecap="round" stroke-linejoin="round"/>
<path d="M6.17969 7.38281H15.5312" stroke="#454545" stroke-width="1.36719" stroke-linecap="round" stroke-linejoin="round"/>
<path d="M6.17969 10.6641H21.8203" stroke="#454545" stroke-width="1.36719" stroke-linecap="round" stroke-linejoin="round"/>
<path d="M14 23.8984C16.6881 23.8984 18.8672 21.7193 18.8672 19.0312C18.8672 16.3432 16.6881 14.1641 14 14.1641C11.3119 14.1641 9.13281 16.3432 9.13281 19.0312C9.13281 21.7193 11.3119 23.8984 14 23.8984Z" stroke="#454545" stroke-width="1.36719" stroke-linecap="round" stroke-linejoin="round"/>
<path d="M12.4414 18.8672L13.5898 20.0156L15.5586 18.0469" stroke="#454545" stroke-width="1.36719" stroke-linecap="round" stroke-linejoin="round"/>
</svg>
