<svg width="28" height="28" viewBox="0 0 28 28" fill="none" xmlns="http://www.w3.org/2000/svg">
<path d="M25.5802 5.04219H21.9363V1.09375C21.9355 0.803936 21.82 0.526239 21.615 0.321308C21.4101 0.116378 21.1324 0.000865554 20.8426 0H3.09375C2.80394 0.000865554 2.52624 0.116378 2.32131 0.321308C2.11638 0.526239 2.00087 0.803936 2 1.09375V21.1531C2.00087 21.4429 2.11638 21.7206 2.32131 21.9256C2.52624 22.1305 2.80394 22.246 3.09375 22.2469H6.73758V26.2002C6.73859 26.4905 6.85452 26.7685 7.06001 26.9735C7.2655 27.1785 7.54382 27.2937 7.83406 27.294H25.5802C25.8704 27.2938 26.1488 27.1786 26.3544 26.9736C26.5599 26.7686 26.6758 26.4905 26.6766 26.2002V6.13867C26.6764 5.84796 26.5607 5.56923 26.3552 5.36366C26.1496 5.15809 25.8709 5.04248 25.5802 5.04219ZM3.30922 20.9366V1.31031H20.6238V20.9366H3.30922ZM25.3641 25.9815H8.05008V22.2491H20.8404C21.1302 22.2482 21.4079 22.1327 21.6128 21.9278C21.8178 21.7228 21.9333 21.4451 21.9341 21.1553V6.35469H25.362L25.3641 25.9815Z" fill="#454545"/>
<path d="M5.80664 4.70801H18.125C18.299 4.70801 18.466 4.63887 18.589 4.5158C18.7121 4.39273 18.7812 4.22581 18.7812 4.05176C18.7812 3.87771 18.7121 3.71079 18.589 3.58772C18.466 3.46465 18.299 3.39551 18.125 3.39551H5.80664C5.63259 3.39551 5.46567 3.46465 5.3426 3.58772C5.21953 3.71079 5.15039 3.87771 5.15039 4.05176C5.15039 4.22581 5.21953 4.39273 5.3426 4.5158C5.46567 4.63887 5.63259 4.70801 5.80664 4.70801Z" fill="#454545"/>
<path d="M18.125 19.1455C18.299 19.1455 18.466 19.0764 18.589 18.9533C18.7121 18.8302 18.7812 18.6633 18.7812 18.4893C18.7812 18.3152 18.7121 18.1483 18.589 18.0252C18.466 17.9021 18.299 17.833 18.125 17.833H5.80664C5.63259 17.833 5.46567 17.9021 5.3426 18.0252C5.21953 18.1483 5.15039 18.3152 5.15039 18.4893C5.15039 18.6633 5.21953 18.8302 5.3426 18.9533C5.46567 19.0764 5.63259 19.1455 5.80664 19.1455H18.125Z" fill="#454545"/>
<path d="M18.0033 7.24329H13.6387C13.4646 7.24329 13.2977 7.31243 13.1746 7.4355C13.0516 7.55857 12.9824 7.72549 12.9824 7.89954C12.9824 8.07358 13.0516 8.2405 13.1746 8.36357C13.2977 8.48665 13.4646 8.55579 13.6387 8.55579H18.0033C18.1773 8.55579 18.3442 8.48665 18.4673 8.36357C18.5904 8.2405 18.6595 8.07358 18.6595 7.89954C18.6595 7.72549 18.5904 7.55857 18.4673 7.4355C18.3442 7.31243 18.1773 7.24329 18.0033 7.24329Z" fill="#454545"/>
<path d="M18.0033 10.6143H13.6387C13.4646 10.6143 13.2977 10.6834 13.1746 10.8065C13.0516 10.9295 12.9824 11.0965 12.9824 11.2705C12.9824 11.4446 13.0516 11.6115 13.1746 11.7345C13.2977 11.8576 13.4646 11.9268 13.6387 11.9268H18.0033C18.1773 11.9268 18.3442 11.8576 18.4673 11.7345C18.5904 11.6115 18.6595 11.4446 18.6595 11.2705C18.6595 11.0965 18.5904 10.9295 18.4673 10.8065C18.3442 10.6834 18.1773 10.6143 18.0033 10.6143Z" fill="#454545"/>
<path d="M18.0033 13.9852H13.6387C13.4646 13.9852 13.2977 14.0544 13.1746 14.1774C13.0516 14.3005 12.9824 14.4674 12.9824 14.6415C12.9824 14.8155 13.0516 14.9824 13.1746 15.1055C13.2977 15.2286 13.4646 15.2977 13.6387 15.2977H18.0033C18.1773 15.2977 18.3442 15.2286 18.4673 15.1055C18.5904 14.9824 18.6595 14.8155 18.6595 14.6415C18.6595 14.4674 18.5904 14.3005 18.4673 14.1774C18.3442 14.0544 18.1773 13.9852 18.0033 13.9852Z" fill="#454545"/>
<path d="M8.04945 6.75769H5.98828C5.81423 6.75769 5.64731 6.82683 5.52424 6.9499C5.40117 7.07297 5.33203 7.23989 5.33203 7.41394V14.9925C5.33203 15.1666 5.40117 15.3335 5.52424 15.4566C5.64731 15.5796 5.81423 15.6488 5.98828 15.6488H10.4727C10.6467 15.6488 10.8136 15.5796 10.9367 15.4566C11.0598 15.3335 11.1289 15.1666 11.1289 14.9925V7.41394C11.1289 7.23989 11.0598 7.07297 10.9367 6.9499C10.8136 6.82683 10.6467 6.75769 10.4727 6.75769H8.04945ZM9.81641 14.3363H6.64453V8.07019H9.81641V14.3363Z" fill="#454545"/>
</svg>
