<svg width="40" height="40" viewBox="0 0 40 40" fill="none" xmlns="http://www.w3.org/2000/svg">
<path d="M38.7137 24.3664H34.9707" stroke="#373737" stroke-width="1.95312" stroke-linecap="round" stroke-linejoin="round"/>
<path d="M36.2062 15.0094L32.9648 16.8844" stroke="#373737" stroke-width="1.95312" stroke-linecap="round" stroke-linejoin="round"/>
<path d="M36.2062 33.7234L32.9648 31.8484" stroke="#373737" stroke-width="1.95312" stroke-linecap="round" stroke-linejoin="round"/>
<path d="M29.3574 8.16016L27.4824 11.4008" stroke="#373737" stroke-width="1.95312" stroke-linecap="round" stroke-linejoin="round"/>
<path d="M20 5.65312V9.39531" stroke="#373737" stroke-width="1.95312" stroke-linecap="round" stroke-linejoin="round"/>
<path d="M23.7418 34.3469H16.2559" stroke="#373737" stroke-width="1.95312" stroke-linecap="round" stroke-linejoin="round"/>
<path d="M1.28711 24.3664H5.03008" stroke="#373737" stroke-width="1.95312" stroke-linecap="round" stroke-linejoin="round"/>
<path d="M3.79492 15.0094L7.03633 16.8844" stroke="#373737" stroke-width="1.95312" stroke-linecap="round" stroke-linejoin="round"/>
<path d="M3.79492 33.7234L7.03633 31.8484" stroke="#373737" stroke-width="1.95312" stroke-linecap="round" stroke-linejoin="round"/>
<path d="M10.6426 8.16016L12.5176 11.4008" stroke="#373737" stroke-width="1.95312" stroke-linecap="round" stroke-linejoin="round"/>
<path d="M18.2347 22.6023C18.5836 22.2535 19.0281 22.016 19.5119 21.9197C19.9958 21.8235 20.4974 21.873 20.9532 22.0618C21.4089 22.2506 21.7985 22.5703 22.0726 22.9805C22.3467 23.3907 22.493 23.873 22.493 24.3664C22.493 24.8597 22.3467 25.342 22.0726 25.7522C21.7985 26.1624 21.4089 26.4822 20.9532 26.671C20.4974 26.8598 19.9958 26.9092 19.5119 26.813C19.0281 26.7168 18.5836 26.4793 18.2347 26.1304C18.003 25.8988 17.8192 25.6238 17.6938 25.3211C17.5684 25.0184 17.5039 24.694 17.5039 24.3664C17.5039 24.0388 17.5684 23.7143 17.6938 23.4117C17.8192 23.109 18.003 22.834 18.2347 22.6023Z" stroke="#373737" stroke-width="1.95312" stroke-linecap="round" stroke-linejoin="round"/>
<path d="M12.0605 16.4273L18.2324 22.5992" stroke="#373737" stroke-width="1.95312" stroke-linecap="round" stroke-linejoin="round"/>
<path d="M21.7656 26.1304L23.7445 28.1094" stroke="#373737" stroke-width="1.95312" stroke-linecap="round" stroke-linejoin="round"/>
<path d="M3.79416 33.7234C2.14755 30.8802 1.2826 27.6519 1.28713 24.3664C1.28713 14.0375 9.67306 5.65309 20.0012 5.65309C30.3293 5.65309 38.7153 14.0375 38.7153 24.3664C38.7198 27.6519 37.8548 30.8802 36.2082 33.7234" stroke="#373737" stroke-width="1.95312" stroke-linecap="round" stroke-linejoin="round"/>
</svg>
