<svg width="28" height="28" viewBox="0 0 28 28" fill="none" xmlns="http://www.w3.org/2000/svg">
<path d="M25.4076 17.3053C25.7406 16.9789 25.9689 16.5608 26.0633 16.1041C26.1577 15.6475 26.1139 15.1731 25.9375 14.7414C25.7611 14.3098 25.4602 13.9405 25.073 13.6806C24.6858 13.4208 24.23 13.2821 23.7637 13.2825H16.6877C18.0045 10.5109 18.2736 8.37864 17.4894 6.93871C16.7347 5.55731 15.2712 5.22481 14.4646 5.14934C14.3185 5.13582 14.1712 5.15242 14.0318 5.19814C13.8924 5.24385 13.7639 5.3177 13.6542 5.41511C13.5444 5.51251 13.4559 5.63141 13.394 5.76442C13.3321 5.89744 13.2982 6.04174 13.2943 6.1884C13.2188 9.04637 12.2738 11.3225 10.485 12.9532C9.75614 13.6224 8.90797 14.1485 7.98469 14.5042V14.269C7.98425 14.0178 7.88426 13.777 7.70662 13.5994C7.52898 13.4217 7.28817 13.3217 7.03695 13.3213H2.83641C2.58518 13.3217 2.34438 13.4217 2.16674 13.5994C1.9891 13.777 1.88911 14.0178 1.88867 14.269V26.9647C1.88896 27.216 1.9889 27.4569 2.16658 27.6346C2.34425 27.8122 2.58514 27.9122 2.83641 27.9125H7.03586C7.28731 27.9125 7.52849 27.8126 7.7064 27.6349C7.8843 27.4572 7.9844 27.2162 7.98469 26.9647V26.5338C9.00297 27.0511 10.6644 27.3897 13.0296 27.5647C14.387 27.6647 15.624 27.6822 16.3109 27.6822C16.627 27.6822 16.8282 27.6784 16.873 27.6779H20.664C21.8168 27.6779 22.7541 26.7066 22.7541 25.5128V25.3662C22.7558 25.0715 22.6987 24.7795 22.5863 24.5071C23.6696 24.4283 24.5282 23.4904 24.5282 22.3486V22.2031C24.5289 21.8781 24.4579 21.5569 24.3204 21.2625C24.7273 21.164 25.1005 20.9583 25.4012 20.667C25.7019 20.3756 25.9191 20.009 26.0303 19.6054C26.1415 19.2017 26.1426 18.7756 26.0336 18.3714C25.9246 17.9671 25.7094 17.5994 25.4103 17.3064L25.4076 17.3053ZM6.70883 26.6382H3.16344V14.5961H6.70883V26.6382ZM23.7637 19.9806H18.4798C18.3011 19.9806 18.1297 20.0516 18.0034 20.1779C17.877 20.3043 17.806 20.4756 17.806 20.6543C17.806 20.833 17.877 21.0044 18.0034 21.1308C18.1297 21.2571 18.3011 21.3281 18.4798 21.3281H18.4847C18.5353 21.3406 18.5873 21.347 18.6395 21.3472H22.437C22.8673 21.3472 23.2173 21.73 23.2173 22.202V22.3486C23.2173 22.82 22.8673 23.2033 22.437 23.2033H20.7416C20.717 23.2033 20.693 23.2033 20.6684 23.2033H18.2555C18.0815 23.2033 17.9146 23.2725 17.7915 23.3955C17.6684 23.5186 17.5993 23.6855 17.5993 23.8596C17.5993 24.0336 17.6684 24.2005 17.7915 24.3236C17.9146 24.4467 18.0815 24.5158 18.2555 24.5158H18.5995C18.6121 24.5158 18.6247 24.5158 18.6378 24.5158H20.6995C21.1141 24.5361 21.4455 24.9107 21.4455 25.3689V25.5155C21.4455 25.9869 21.0955 26.3703 20.6651 26.3703H16.8534C14.942 26.4102 9.6718 26.2724 8.24555 25.1672C8.16865 25.1071 8.07906 25.0654 7.98359 25.0452V15.3125L8.11867 15.8047C8.18375 15.7866 9.72867 15.3502 11.2933 13.9453C12.702 12.6798 14.3973 10.3572 14.5609 6.44926C15.1302 6.53512 15.9559 6.79325 16.3705 7.55286C16.8047 8.3491 16.9573 9.99793 15.2417 13.3355C15.0966 13.3939 14.9763 13.5009 14.9015 13.6383C14.8266 13.7757 14.802 13.9348 14.8316 14.0884C14.8613 14.242 14.9435 14.3805 15.0641 14.4801C15.1848 14.5797 15.3363 14.6342 15.4927 14.6343H23.7637C24.0291 14.6343 24.2836 14.7398 24.4713 14.9275C24.659 15.1151 24.7645 15.3697 24.7645 15.6351C24.7645 15.9005 24.659 16.1551 24.4713 16.3428C24.2836 16.5305 24.0291 16.6359 23.7637 16.6359H18.6378C18.4591 16.6359 18.2878 16.7069 18.1614 16.8332C18.035 16.9596 17.9641 17.131 17.9641 17.3097C17.9641 17.4883 18.035 17.6597 18.1614 17.7861C18.2878 17.9124 18.4591 17.9834 18.6378 17.9834H23.7637C24.0291 17.9834 24.2836 18.0888 24.4713 18.2765C24.659 18.4642 24.7645 18.7188 24.7645 18.9842C24.7645 19.2496 24.659 19.5042 24.4713 19.6918C24.2836 19.8795 24.0291 19.985 23.7637 19.985V19.9806Z" fill="#454545"/>
<path d="M17.7195 3.19813C17.8786 3.26756 18.0588 3.2711 18.2206 3.20796C18.3823 3.14482 18.5125 3.02015 18.5825 2.86125L19.3973 1.00571C19.4385 0.926038 19.463 0.838765 19.4692 0.749276C19.4753 0.659787 19.4631 0.569982 19.4332 0.485407C19.4033 0.400833 19.3564 0.323285 19.2954 0.257552C19.2343 0.19182 19.1605 0.139298 19.0783 0.103232C18.9962 0.0671662 18.9075 0.0483208 18.8178 0.0478602C18.7281 0.0473996 18.6393 0.0653335 18.5568 0.100554C18.4743 0.135775 18.3999 0.187535 18.3382 0.252637C18.2765 0.317739 18.2288 0.394802 18.198 0.479065L17.3832 2.33461C17.3135 2.49375 17.3098 2.67401 17.3729 2.83588C17.4359 2.99775 17.5606 3.12801 17.7195 3.19813Z" fill="#454545"/>
<path d="M12.5103 2.86121C12.5411 2.94548 12.5888 3.02254 12.6505 3.08764C12.7122 3.15274 12.7866 3.2045 12.8691 3.23973C12.9516 3.27495 13.0405 3.29288 13.1302 3.29242C13.2199 3.29196 13.3085 3.27311 13.3906 3.23705C13.4728 3.20098 13.5466 3.14846 13.6077 3.08273C13.6687 3.01699 13.7156 2.93945 13.7455 2.85487C13.7754 2.7703 13.7876 2.68049 13.7815 2.591C13.7753 2.50151 13.7508 2.41424 13.7096 2.33457L12.8953 0.479027C12.8193 0.329748 12.6891 0.215197 12.5313 0.158846C12.3735 0.102495 12.2002 0.108612 12.0468 0.175942C11.8934 0.243272 11.7716 0.366718 11.7062 0.520985C11.6409 0.675251 11.6371 0.848656 11.6955 1.00567L12.5103 2.86121Z" fill="#454545"/>
<path d="M20.3359 6.42249H22.2588C22.3449 6.42249 22.4303 6.40551 22.5099 6.37253C22.5895 6.33955 22.6619 6.29121 22.7228 6.23027C22.7837 6.16934 22.8321 6.09699 22.865 6.01737C22.898 5.93775 22.915 5.85242 22.915 5.76624C22.915 5.68006 22.898 5.59472 22.865 5.5151C22.8321 5.43548 22.7837 5.36313 22.7228 5.3022C22.6619 5.24126 22.5895 5.19292 22.5099 5.15994C22.4303 5.12696 22.3449 5.10999 22.2588 5.10999H20.3359C20.2498 5.10999 20.1644 5.12696 20.0848 5.15994C20.0052 5.19292 19.9328 5.24126 19.8719 5.3022C19.811 5.36313 19.7626 5.43548 19.7296 5.5151C19.6967 5.59472 19.6797 5.68006 19.6797 5.76624C19.6797 5.85242 19.6967 5.93775 19.7296 6.01737C19.7626 6.09699 19.811 6.16934 19.8719 6.23027C19.9328 6.29121 20.0052 6.33955 20.0848 6.37253C20.1644 6.40551 20.2498 6.42249 20.3359 6.42249Z" fill="#454545"/>
<path d="M8.86523 6.42249H10.7886C10.8748 6.42249 10.9601 6.40551 11.0397 6.37253C11.1194 6.33955 11.1917 6.29121 11.2526 6.23027C11.3136 6.16934 11.3619 6.09699 11.3949 6.01737C11.4279 5.93775 11.4448 5.85242 11.4448 5.76624C11.4448 5.68006 11.4279 5.59472 11.3949 5.5151C11.3619 5.43548 11.3136 5.36313 11.2526 5.3022C11.1917 5.24126 11.1194 5.19292 11.0397 5.15994C10.9601 5.12696 10.8748 5.10999 10.7886 5.10999H8.86523C8.77905 5.10999 8.69372 5.12696 8.6141 5.15994C8.53448 5.19292 8.46213 5.24126 8.4012 5.3022C8.34026 5.36313 8.29192 5.43548 8.25894 5.5151C8.22596 5.59472 8.20898 5.68006 8.20898 5.76624C8.20898 5.85242 8.22596 5.93775 8.25894 6.01737C8.29192 6.09699 8.34026 6.16934 8.4012 6.23027C8.46213 6.29121 8.53448 6.33955 8.6141 6.37253C8.69372 6.40551 8.77905 6.42249 8.86523 6.42249Z" fill="#454545"/>
</svg>
