<svg width="28" height="28" viewBox="0 0 28 28" fill="none" xmlns="http://www.w3.org/2000/svg">
<g clip-path="url(#clip0_252_1496)">
<path d="M25.534 0.132324H2.4668C1.83605 0.132903 1.2313 0.383723 0.785296 0.829729C0.33929 1.27574 0.0884698 1.88048 0.0878906 2.51123V25.5784C0.0884698 26.2092 0.33929 26.8139 0.785296 27.2599C1.2313 27.7059 1.83605 27.9567 2.4668 27.9573H25.534C26.1647 27.9566 26.7694 27.7057 27.2153 27.2598C27.6613 26.8138 27.9122 26.2091 27.9129 25.5784V2.51123C27.9122 1.88053 27.6613 1.27586 27.2153 0.829889C26.7694 0.383914 26.1647 0.133048 25.534 0.132324ZM2.4668 1.44482H25.534C25.8168 1.44482 26.0881 1.55718 26.288 1.75717C26.488 1.95716 26.6004 2.2284 26.6004 2.51123V19.9308H1.40039V2.51123C1.40039 2.2284 1.51274 1.95716 1.71273 1.75717C1.91272 1.55718 2.18397 1.44482 2.4668 1.44482ZM25.534 26.6448H2.4668C2.18397 26.6448 1.91272 26.5325 1.71273 26.3325C1.51274 26.1325 1.40039 25.8612 1.40039 25.5784V21.2433H26.6004V25.5784C26.6004 25.8612 26.488 26.1325 26.288 26.3325C26.0881 26.5325 25.8168 26.6448 25.534 26.6448Z" fill="#454545"/>
<path d="M5.82242 23.2422H3.86133C3.68728 23.2422 3.52036 23.3113 3.39729 23.4344C3.27422 23.5575 3.20508 23.7244 3.20508 23.8984C3.20508 24.0725 3.27422 24.2394 3.39729 24.3625C3.52036 24.4855 3.68728 24.5547 3.86133 24.5547H5.82242C5.99647 24.5547 6.16339 24.4855 6.28646 24.3625C6.40953 24.2394 6.47867 24.0725 6.47867 23.8984C6.47867 23.7244 6.40953 23.5575 6.28646 23.4344C6.16339 23.3113 5.99647 23.2422 5.82242 23.2422Z" fill="#454545"/>
<path d="M10.8517 23.2422H8.89062C8.71658 23.2422 8.54966 23.3113 8.42659 23.4344C8.30351 23.5575 8.23438 23.7244 8.23438 23.8984C8.23438 24.0725 8.30351 24.2394 8.42659 24.3625C8.54966 24.4855 8.71658 24.5547 8.89062 24.5547H10.8517C11.0258 24.5547 11.1927 24.4855 11.3158 24.3625C11.4388 24.2394 11.508 24.0725 11.508 23.8984C11.508 23.7244 11.4388 23.5575 11.3158 23.4344C11.1927 23.3113 11.0258 23.2422 10.8517 23.2422Z" fill="#454545"/>
<path d="M15.881 23.2422H13.9199C13.7459 23.2422 13.579 23.3113 13.4559 23.4344C13.3328 23.5575 13.2637 23.7244 13.2637 23.8984C13.2637 24.0725 13.3328 24.2394 13.4559 24.3625C13.579 24.4855 13.7459 24.5547 13.9199 24.5547H15.881C16.0551 24.5547 16.222 24.4855 16.3451 24.3625C16.4681 24.2394 16.5373 24.0725 16.5373 23.8984C16.5373 23.7244 16.4681 23.5575 16.3451 23.4344C16.222 23.3113 16.0551 23.2422 15.881 23.2422Z" fill="#454545"/>
<path d="M20.7762 24.6206C21.1344 24.5627 21.3779 24.2254 21.32 23.8672C21.2621 23.509 20.9248 23.2655 20.5666 23.3234C20.2084 23.3813 19.9649 23.7186 20.0228 24.0768C20.0807 24.435 20.418 24.6785 20.7762 24.6206Z" fill="#454545"/>
<path d="M24.0625 23.2422C23.9327 23.2422 23.8058 23.2807 23.6979 23.3528C23.59 23.4249 23.5059 23.5274 23.4562 23.6473C23.4065 23.7672 23.3935 23.8992 23.4189 24.0265C23.4442 24.1538 23.5067 24.2707 23.5985 24.3625C23.6902 24.4543 23.8072 24.5168 23.9345 24.5421C24.0618 24.5674 24.1937 24.5544 24.3136 24.5047C24.4335 24.4551 24.536 24.3709 24.6082 24.263C24.6803 24.1551 24.7187 24.0282 24.7187 23.8984C24.7187 23.7244 24.6496 23.5575 24.5265 23.4344C24.4035 23.3113 24.2365 23.2422 24.0625 23.2422Z" fill="#454545"/>
<path d="M21.6011 9.55719V17.3999C21.6011 17.574 21.6703 17.7409 21.7933 17.864C21.9164 17.987 22.0833 18.0562 22.2574 18.0562C22.4314 18.0562 22.5983 17.987 22.7214 17.864C22.8445 17.7409 22.9136 17.574 22.9136 17.3999V9.55719C23.4068 9.41475 23.8403 9.1159 24.1488 8.70567C24.4573 8.29543 24.6241 7.79603 24.6241 7.28273C24.6241 6.76943 24.4573 6.27004 24.1488 5.8598C23.8403 5.44957 23.4068 5.15071 22.9136 5.00828V3.9375C22.9136 3.76345 22.8445 3.59653 22.7214 3.47346C22.5983 3.35039 22.4314 3.28125 22.2574 3.28125C22.0833 3.28125 21.9164 3.35039 21.7933 3.47346C21.6703 3.59653 21.6011 3.76345 21.6011 3.9375V5.00828C21.108 5.15071 20.6745 5.44957 20.366 5.8598C20.0575 6.27004 19.8906 6.76943 19.8906 7.28273C19.8906 7.79603 20.0575 8.29543 20.366 8.70567C20.6745 9.1159 21.108 9.41475 21.6011 9.55719ZM21.6011 6.45805C21.7879 6.30968 22.0195 6.2291 22.258 6.22949C22.4966 6.22989 22.7279 6.31123 22.9142 6.46022C23.1004 6.60921 23.2306 6.81701 23.2834 7.04962C23.3362 7.28223 23.3085 7.52588 23.2048 7.74069C23.1011 7.95549 22.9276 8.12874 22.7126 8.23208C22.4976 8.33542 22.2539 8.36272 22.0214 8.30953C21.7889 8.25633 21.5813 8.12579 21.4326 7.93926C21.2839 7.75273 21.203 7.52126 21.203 7.28273C21.2026 7.1241 21.2382 6.96743 21.3071 6.82457C21.3761 6.68171 21.4766 6.55638 21.6011 6.45805Z" fill="#454545"/>
<path d="M4.92925 9.55719V17.3999C4.92925 17.574 4.99839 17.7409 5.12146 17.864C5.24453 17.987 5.41145 18.0562 5.5855 18.0562C5.75955 18.0562 5.92647 17.987 6.04954 17.864C6.17261 17.7409 6.24175 17.574 6.24175 17.3999V9.55719C6.73489 9.41475 7.16838 9.1159 7.4769 8.70567C7.78542 8.29543 7.95225 7.79603 7.95225 7.28273C7.95225 6.76943 7.78542 6.27004 7.4769 5.8598C7.16838 5.44957 6.73489 5.15071 6.24175 5.00828V3.9375C6.24175 3.76345 6.17261 3.59653 6.04954 3.47346C5.92647 3.35039 5.75955 3.28125 5.5855 3.28125C5.41145 3.28125 5.24453 3.35039 5.12146 3.47346C4.99839 3.59653 4.92925 3.76345 4.92925 3.9375V5.00828C4.4361 5.15071 4.00261 5.44957 3.6941 5.8598C3.38558 6.27004 3.21875 6.76943 3.21875 7.28273C3.21875 7.79603 3.38558 8.29543 3.6941 8.70567C4.00261 9.1159 4.4361 9.41475 4.92925 9.55719ZM4.92925 6.45805C5.11602 6.30968 5.34762 6.2291 5.58615 6.22949C5.82468 6.22989 6.05601 6.31123 6.24229 6.46022C6.42856 6.60921 6.55876 6.81701 6.61156 7.04962C6.66436 7.28223 6.63664 7.52588 6.53294 7.74069C6.42924 7.95549 6.2557 8.12874 6.04071 8.23208C5.82573 8.33542 5.58204 8.36272 5.34952 8.30953C5.11699 8.25633 4.90941 8.12579 4.76074 7.93926C4.61207 7.75273 4.53111 7.52126 4.53112 7.28273C4.53085 7.12412 4.56653 6.96751 4.63549 6.82467C4.70444 6.68184 4.80488 6.55649 4.92925 6.45805Z" fill="#454545"/>
<path d="M13.2646 14.5545V17.3983C13.2646 17.5723 13.3338 17.7392 13.4568 17.8623C13.5799 17.9854 13.7468 18.0545 13.9209 18.0545C14.0949 18.0545 14.2619 17.9854 14.3849 17.8623C14.508 17.7392 14.5771 17.5723 14.5771 17.3983V14.6016C15.0883 14.4728 15.5419 14.1771 15.866 13.7614C16.1901 13.3456 16.3661 12.8335 16.3661 12.3063C16.3661 11.7792 16.1901 11.2671 15.866 10.8513C15.5419 10.4355 15.0883 10.1398 14.5771 10.0111V3.9375C14.5771 3.76345 14.508 3.59653 14.3849 3.47346C14.2619 3.35039 14.0949 3.28125 13.9209 3.28125C13.7468 3.28125 13.5799 3.35039 13.4568 3.47346C13.3338 3.59653 13.2646 3.76345 13.2646 3.9375V10.057C12.7901 10.2121 12.3768 10.5131 12.0837 10.9172C11.7906 11.3213 11.6328 11.8077 11.6328 12.3069C11.6328 12.8061 11.7906 13.2925 12.0837 13.6965C12.3768 14.1006 12.7901 14.4017 13.2646 14.5567V14.5545ZM13.2646 11.5467C13.4389 11.3777 13.6663 11.2742 13.9082 11.2536C14.15 11.233 14.3916 11.2966 14.592 11.4337C14.7923 11.5708 14.9391 11.773 15.0075 12.0059C15.0759 12.2388 15.0617 12.4882 14.9673 12.7119C14.8729 12.9355 14.7041 13.1197 14.4895 13.2332C14.2749 13.3467 14.0277 13.3825 13.7897 13.3345C13.5517 13.2866 13.3376 13.1579 13.1836 12.9703C13.0296 12.7826 12.9452 12.5475 12.9447 12.3047C12.9445 12.1637 12.9728 12.0241 13.0277 11.8942C13.0827 11.7644 13.1633 11.6469 13.2646 11.5489V11.5467Z" fill="#454545"/>
</g>
<defs>
<clipPath id="clip0_252_1496">
<rect width="28" height="28" fill="white"/>
</clipPath>
</defs>
</svg>
