<svg width="28" height="28" viewBox="0 0 28 28" fill="none" xmlns="http://www.w3.org/2000/svg">
<g clip-path="url(#clip0_265_1675)">
<path d="M27.7909 2.14754C27.7904 1.63384 27.586 1.14134 27.2228 0.778104C26.8596 0.414863 26.3671 0.21054 25.8534 0.209961H2.14797C1.63432 0.21054 1.14188 0.414881 0.778727 0.778137C0.415573 1.14139 0.211372 1.63389 0.210938 2.14754V13.149L1.6875 14L0.210938 14.8509V25.8524C0.211372 26.366 0.415573 26.8585 0.778727 27.2218C1.14188 27.585 1.63432 27.7894 2.14797 27.79H25.8534C26.3671 27.7894 26.8596 27.5851 27.2228 27.2218C27.586 26.8586 27.7904 26.3661 27.7909 25.8524V14.8263L26.3603 14L27.792 13.1736L27.7909 2.14754ZM26.4784 12.414L24.7924 13.3875C24.6859 13.4499 24.5976 13.5392 24.5362 13.6463C24.4748 13.7535 24.4426 13.8748 24.4426 13.9983C24.4426 14.1218 24.4748 14.2431 24.5362 14.3503C24.5976 14.4575 24.6859 14.5467 24.7924 14.6092L26.4784 15.5859V25.8524C26.4781 26.0181 26.4122 26.1769 26.295 26.2941C26.1779 26.4112 26.0191 26.4772 25.8534 26.4775H2.14797C1.98233 26.4772 1.82356 26.4112 1.70649 26.294C1.58941 26.1768 1.52358 26.018 1.52344 25.8524V15.6089L3.25156 14.6108C3.35839 14.5481 3.44691 14.4586 3.5083 14.351C3.56968 14.2434 3.60178 14.1216 3.60139 13.9978C3.60101 13.8739 3.56814 13.7523 3.50609 13.6451C3.44403 13.538 3.35495 13.4489 3.24773 13.3869L1.52344 12.3911V2.14754C1.52358 1.9819 1.58941 1.82307 1.70649 1.70589C1.82356 1.58872 1.98233 1.52275 2.14797 1.52246H25.8534C26.0191 1.52275 26.1779 1.5887 26.295 1.70586C26.4122 1.82302 26.4781 1.98185 26.4784 2.14754V12.414Z" fill="black"/>
<path d="M3.77734 4.8125H7.8275C8.00155 4.8125 8.16847 4.74336 8.29154 4.62029C8.41461 4.49722 8.48375 4.3303 8.48375 4.15625C8.48375 3.9822 8.41461 3.81528 8.29154 3.69221C8.16847 3.56914 8.00155 3.5 7.8275 3.5H3.77734C3.6033 3.5 3.43638 3.56914 3.3133 3.69221C3.19023 3.81528 3.12109 3.9822 3.12109 4.15625C3.12109 4.3303 3.19023 4.49722 3.3133 4.62029C3.43638 4.74336 3.6033 4.8125 3.77734 4.8125Z" fill="black"/>
<path d="M3.77672 7.75854H12.0312C12.2053 7.75854 12.3722 7.6894 12.4953 7.56633C12.6184 7.44326 12.6875 7.27634 12.6875 7.10229C12.6875 6.92825 12.6184 6.76133 12.4953 6.63826C12.3722 6.51519 12.2053 6.44604 12.0312 6.44604H3.77344C3.59939 6.44604 3.43247 6.51519 3.3094 6.63826C3.18633 6.76133 3.11719 6.92825 3.11719 7.10229C3.11719 7.27634 3.18633 7.44326 3.3094 7.56633C3.43247 7.6894 3.59939 7.75854 3.77344 7.75854H3.77672Z" fill="black"/>
<path d="M12.0312 10.704C12.2053 10.704 12.3722 10.6348 12.4953 10.5118C12.6184 10.3887 12.6875 10.2218 12.6875 10.0477C12.6875 9.87368 12.6184 9.70676 12.4953 9.58369C12.3722 9.46062 12.2053 9.39148 12.0312 9.39148H3.77344C3.59939 9.39148 3.43247 9.46062 3.3094 9.58369C3.18633 9.70676 3.11719 9.87368 3.11719 10.0477C3.11719 10.2218 3.18633 10.3887 3.3094 10.5118C3.43247 10.6348 3.59939 10.704 3.77344 10.704H12.0312Z" fill="black"/>
<path d="M12.0312 19.6328H3.77344C3.59939 19.6328 3.43247 19.702 3.3094 19.825C3.18633 19.9481 3.11719 20.115 3.11719 20.2891C3.11719 20.4631 3.18633 20.63 3.3094 20.7531C3.43247 20.8762 3.59939 20.9453 3.77344 20.9453H12.0312C12.2053 20.9453 12.3722 20.8762 12.4953 20.7531C12.6184 20.63 12.6875 20.4631 12.6875 20.2891C12.6875 20.115 12.6184 19.9481 12.4953 19.825C12.3722 19.702 12.2053 19.6328 12.0312 19.6328Z" fill="black"/>
<path d="M12.0312 22.58H3.77344C3.59939 22.58 3.43247 22.6491 3.3094 22.7722C3.18633 22.8952 3.11719 23.0622 3.11719 23.2362C3.11719 23.4103 3.18633 23.5772 3.3094 23.7002C3.43247 23.8233 3.59939 23.8925 3.77344 23.8925H12.0312C12.2053 23.8925 12.3722 23.8233 12.4953 23.7002C12.6184 23.5772 12.6875 23.4103 12.6875 23.2362C12.6875 23.0622 12.6184 22.8952 12.4953 22.7722C12.3722 22.6491 12.2053 22.58 12.0312 22.58Z" fill="black"/>
<path d="M21.1258 17.4043C20.433 17.4043 19.7558 17.6097 19.1798 17.9946C18.6037 18.3795 18.1548 18.9266 17.8897 19.5666C17.6246 20.2066 17.5552 20.9109 17.6904 21.5904C17.8255 22.2698 18.1591 22.894 18.649 23.3838C19.1388 23.8737 19.763 24.2073 20.4424 24.3425C21.1219 24.4776 21.8262 24.4082 22.4662 24.1431C23.1063 23.878 23.6533 23.4291 24.0382 22.853C24.4231 22.277 24.6285 21.5998 24.6285 20.907C24.6275 19.9784 24.2581 19.088 23.6015 18.4313C22.9448 17.7747 22.0545 17.4053 21.1258 17.4043ZM21.1258 23.0973C20.6926 23.0973 20.2691 22.9688 19.909 22.7281C19.5488 22.4875 19.268 22.1454 19.1023 21.7452C18.9365 21.345 18.8931 20.9046 18.9776 20.4797C19.0621 20.0549 19.2707 19.6646 19.5771 19.3583C19.8834 19.052 20.2736 18.8434 20.6985 18.7589C21.1234 18.6744 21.5637 18.7177 21.9639 18.8835C22.3642 19.0493 22.7062 19.33 22.9469 19.6902C23.1876 20.0504 23.316 20.4738 23.316 20.907C23.3153 21.4877 23.0843 22.0444 22.6737 22.455C22.2631 22.8656 21.7064 23.0965 21.1258 23.0973Z" fill="black"/>
<path d="M23.5086 3.43601L21.2894 5.65523H18.0902C17.9161 5.65523 17.7492 5.72437 17.6261 5.84744C17.503 5.97051 17.4339 6.13743 17.4339 6.31148C17.4339 6.48552 17.503 6.65244 17.6261 6.77551C17.7492 6.89858 17.9161 6.96773 18.0902 6.96773H19.9769L16.9078 10.0368H14.6191C14.4451 10.0368 14.2782 10.1059 14.1551 10.229C14.032 10.3521 13.9629 10.519 13.9629 10.693C13.9629 10.8671 14.032 11.034 14.1551 11.1571C14.2782 11.2801 14.4451 11.3493 14.6191 11.3493H17.1577C17.3516 11.3366 17.5351 11.2569 17.6767 11.124L20.8305 7.97015V9.74312C20.8305 9.91716 20.8997 10.0841 21.0228 10.2072C21.1458 10.3302 21.3127 10.3994 21.4868 10.3994C21.6608 10.3994 21.8278 10.3302 21.9508 10.2072C22.0739 10.0841 22.143 9.91716 22.143 9.74312V6.65765L24.4372 4.36405C24.4982 4.30301 24.5467 4.23054 24.5797 4.15078C24.6127 4.07102 24.6297 3.98554 24.6297 3.89921C24.6297 3.81288 24.6127 3.7274 24.5797 3.64764C24.5467 3.56788 24.4982 3.49541 24.4372 3.43437C24.3761 3.37332 24.3037 3.3249 24.2239 3.29186C24.1442 3.25883 24.0587 3.24182 23.9723 3.24182C23.886 3.24182 23.8005 3.25883 23.7208 3.29186C23.641 3.3249 23.5685 3.37332 23.5075 3.43437L23.5086 3.43601Z" fill="black"/>
<path d="M5.87695 13.3438C5.7029 13.3438 5.53599 13.4129 5.41291 13.536C5.28984 13.659 5.2207 13.826 5.2207 14C5.2207 14.174 5.28984 14.341 5.41291 14.464C5.53599 14.5871 5.7029 14.6562 5.87695 14.6562H7.46617C7.64022 14.6562 7.80714 14.5871 7.93021 14.464C8.05328 14.341 8.12242 14.174 8.12242 14C8.12242 13.826 8.05328 13.659 7.93021 13.536C7.80714 13.4129 7.64022 13.3438 7.46617 13.3438H5.87695Z" fill="black"/>
<path d="M9.54102 13.3438C9.36697 13.3438 9.20005 13.4129 9.07698 13.536C8.95391 13.659 8.88477 13.826 8.88477 14C8.88477 14.174 8.95391 14.341 9.07698 14.464C9.20005 14.5871 9.36697 14.6562 9.54102 14.6562H11.1302C11.3043 14.6562 11.4712 14.5871 11.5943 14.464C11.7173 14.341 11.7865 14.174 11.7865 14C11.7865 13.826 11.7173 13.659 11.5943 13.536C11.4712 13.4129 11.3043 13.3438 11.1302 13.3438H9.54102Z" fill="black"/>
<path d="M14.7943 13.3438H13.2051C13.031 13.3438 12.8641 13.4129 12.741 13.536C12.618 13.659 12.5488 13.826 12.5488 14C12.5488 14.174 12.618 14.341 12.741 14.464C12.8641 14.5871 13.031 14.6562 13.2051 14.6562H14.7943C14.9683 14.6562 15.1353 14.5871 15.2583 14.464C15.3814 14.341 15.4505 14.174 15.4505 14C15.4505 13.826 15.3814 13.659 15.2583 13.536C15.1353 13.4129 14.9683 13.3438 14.7943 13.3438Z" fill="black"/>
<path d="M19.1146 14C19.1146 13.826 19.0455 13.659 18.9224 13.536C18.7993 13.4129 18.6324 13.3438 18.4584 13.3438H16.8691C16.6951 13.3438 16.5282 13.4129 16.4051 13.536C16.282 13.659 16.2129 13.826 16.2129 14C16.2129 14.174 16.282 14.341 16.4051 14.464C16.5282 14.5871 16.6951 14.6562 16.8691 14.6562H18.4584C18.6324 14.6562 18.7993 14.5871 18.9224 14.464C19.0455 14.341 19.1146 14.174 19.1146 14Z" fill="black"/>
<path d="M22.1244 14.6562C22.2984 14.6562 22.4653 14.5871 22.5884 14.464C22.7115 14.341 22.7806 14.174 22.7806 14C22.7806 13.826 22.7115 13.659 22.5884 13.536C22.4653 13.4129 22.2984 13.3438 22.1244 13.3438H20.5352C20.3611 13.3438 20.1942 13.4129 20.0711 13.536C19.948 13.659 19.8789 13.826 19.8789 14C19.8789 14.174 19.948 14.341 20.0711 14.464C20.1942 14.5871 20.3611 14.6562 20.5352 14.6562H22.1244Z" fill="black"/>
</g>
<defs>
<clipPath id="clip0_265_1675">
<rect width="28" height="28" fill="white"/>
</clipPath>
</defs>
</svg>
