<svg width="28" height="28" viewBox="0 0 28 28" fill="none" xmlns="http://www.w3.org/2000/svg">
<g clip-path="url(#clip0_252_1449)">
<path d="M23.4617 7.28271H2.9118C2.19368 7.28358 1.50522 7.56924 0.997436 8.07703C0.489649 8.58481 0.203993 9.27327 0.203125 9.99139V24.8084C0.203993 25.5265 0.489649 26.215 0.997436 26.7228C1.50522 27.2306 2.19368 27.5162 2.9118 27.5171H23.4617C24.1798 27.5162 24.8683 27.2306 25.3761 26.7228C25.8839 26.215 26.1695 25.5265 26.1704 24.8084V19.9139C26.1344 19.9212 26.0977 19.9249 26.061 19.9248H24.8579V24.8084C24.8579 25.1787 24.7108 25.5338 24.449 25.7957C24.1871 26.0575 23.832 26.2046 23.4617 26.2046H2.9118C2.54151 26.2046 2.18639 26.0575 1.92455 25.7957C1.66272 25.5338 1.51562 25.1787 1.51562 24.8084V9.99139C1.51562 9.6211 1.66272 9.26598 1.92455 9.00414C2.18639 8.74231 2.54151 8.59521 2.9118 8.59521H23.4617C23.832 8.59521 24.1871 8.74231 24.449 9.00414C24.7108 9.26598 24.8579 9.6211 24.8579 9.99139V14.7262H26.061C26.0977 14.7262 26.1344 14.7298 26.1704 14.7372V9.99139C26.1695 9.27327 25.8839 8.58481 25.3761 8.07703C24.8683 7.56924 24.1798 7.28358 23.4617 7.28271Z" fill="#454545"/>
<path d="M21.831 8.52746H13.9642C13.5501 8.52702 13.1531 8.36233 12.8603 8.06951C12.5675 7.7767 12.4028 7.37968 12.4023 6.96558V4.82292C12.4029 4.40892 12.5677 4.01204 12.8605 3.71935C13.1533 3.42665 13.5502 3.26203 13.9642 3.2616H21.831C22.245 3.26203 22.642 3.42665 22.9348 3.71935C23.2276 4.01204 23.3923 4.40892 23.3929 4.82292V6.96558C23.3925 7.37968 23.2278 7.7767 22.9349 8.06951C22.6421 8.36233 22.2451 8.52702 21.831 8.52746ZM13.9642 4.5741C13.8982 4.5741 13.8348 4.60029 13.7881 4.64694C13.7413 4.69359 13.715 4.75688 13.7148 4.82292V6.96558C13.715 7.03168 13.7413 7.09502 13.788 7.14176C13.8348 7.18849 13.8981 7.21481 13.9642 7.21496H21.831C21.8971 7.21481 21.9605 7.18849 22.0072 7.14176C22.0539 7.09502 22.0802 7.03168 22.0804 6.96558V4.82292C22.0802 4.75688 22.0539 4.69359 22.0072 4.64694C21.9604 4.60029 21.8971 4.5741 21.831 4.5741H13.9642Z" fill="#454545"/>
<path d="M3.62652 8.6024C3.60355 8.55099 3.58168 8.4974 3.56254 8.44435L2.70613 6.07693C2.51546 5.54985 2.54196 4.96862 2.77978 4.46107C3.01761 3.95353 3.44729 3.56122 3.97433 3.37045L12.8173 0.171775C13.0783 0.0773141 13.3553 0.0352029 13.6326 0.0478482C13.9098 0.0604935 14.1819 0.127647 14.4332 0.245473C14.6845 0.363298 14.9101 0.529485 15.0971 0.734537C15.2841 0.93959 15.429 1.17949 15.5232 1.44053L16.1937 3.29334L14.9594 3.73959L14.2895 1.88678C14.2172 1.68699 14.0685 1.52411 13.8761 1.43396C13.6837 1.34381 13.4633 1.33378 13.2636 1.40607L4.42113 4.60474C4.32171 4.64026 4.2303 4.69508 4.15215 4.76607C4.07401 4.83705 4.01067 4.92279 3.96579 5.01834C3.92091 5.1139 3.89537 5.21739 3.89064 5.32285C3.88591 5.42832 3.90209 5.53368 3.93824 5.63287L4.79683 7.99756C4.8039 8.01823 4.81212 8.0385 4.82144 8.05826L3.62652 8.6024Z" fill="#454545"/>
<path d="M26.1678 13.417C26.1314 13.4148 26.0949 13.4137 26.0584 13.4137H20.4732C19.672 13.4146 18.9038 13.7332 18.3373 14.2998C17.7707 14.8663 17.452 15.6345 17.4512 16.4357V18.2147C17.452 19.016 17.7707 19.7842 18.3372 20.3508C18.9038 20.9175 19.6719 21.2363 20.4732 21.2373H26.0595C26.096 21.2373 26.1324 21.2362 26.1689 21.234C26.6393 21.2057 27.0812 20.9991 27.4044 20.6562C27.7277 20.3134 27.908 19.8601 27.9085 19.3889V15.2616C27.9079 14.7902 27.7275 14.3369 27.404 13.9941C27.0805 13.6513 26.6383 13.4448 26.1678 13.417ZM26.5949 19.3889C26.5948 19.5121 26.5522 19.6315 26.4745 19.7271C26.3967 19.8227 26.2884 19.8886 26.1678 19.9139C26.1318 19.9212 26.0952 19.9249 26.0584 19.9248H20.4732C20.0199 19.9242 19.5853 19.7438 19.2648 19.4232C18.9443 19.1027 18.7641 18.668 18.7637 18.2147V16.4357C18.7641 15.9825 18.9444 15.5479 19.2649 15.2274C19.5854 14.9069 20.0199 14.7266 20.4732 14.7262H26.0595C26.0963 14.7261 26.1329 14.7298 26.1689 14.7371C26.2895 14.7622 26.3977 14.8281 26.4755 14.9236C26.5533 15.0191 26.5958 15.1384 26.596 15.2616L26.5949 19.3889Z" fill="#454545"/>
<path d="M20.1877 17.8949C20.5514 17.8949 20.8462 17.6001 20.8462 17.2364C20.8462 16.8728 20.5514 16.578 20.1877 16.578C19.8241 16.578 19.5293 16.8728 19.5293 17.2364C19.5293 17.6001 19.8241 17.8949 20.1877 17.8949Z" fill="#454545"/>
</g>
<defs>
<clipPath id="clip0_252_1449">
<rect width="28" height="28" fill="white"/>
</clipPath>
</defs>
</svg>
